<svg width="24" height="24" viewBox="0 0 24 24" fill="none" xmlns="http://www.w3.org/2000/svg">
<g clip-path="url(#clip0_9_726)">
<path d="M0.271557 13.235C0.221667 13.235 0.18188 13.2735 0.175565 13.3291L0 14.6623L0.175565 15.9721C0.176197 16.027 0.221667 16.0655 0.271557 16.0655C0.320185 16.0655 0.35934 16.0276 0.36755 15.9721L0.575323 14.6616L0.36755 13.3285C0.359971 13.2735 0.320185 13.235 0.271557 13.235ZM1.25864 12.5069C1.25043 12.4494 1.20938 12.4102 1.15886 12.4102C1.10833 12.4102 1.06602 12.4513 1.05907 12.5069C1.05907 12.5069 0.822882 14.6623 0.822882 14.6623L1.05907 16.7697C1.06602 16.8265 1.1077 16.8669 1.15886 16.8669C1.20938 16.8669 1.25043 16.8272 1.25864 16.7703L1.52704 14.6623L1.25864 12.5069ZM4.97582 10.5188C4.87919 10.5188 4.79899 10.5978 4.79457 10.6988L4.60637 14.6642L4.79457 17.2269C4.79962 17.3273 4.87919 17.4063 4.97582 17.4063C5.07181 17.4063 5.15201 17.3273 5.1577 17.2269V17.227L5.36989 14.6642L5.1577 10.6989C5.15201 10.5985 5.07244 10.5189 4.97582 10.5189V10.5188ZM3.05155 11.8969C2.97703 11.8969 2.9164 11.9562 2.91072 12.0352L2.69916 14.6623L2.91072 17.2011C2.9164 17.28 2.97703 17.3394 3.05155 17.3394C3.12481 17.3394 3.18606 17.28 3.19238 17.2011L3.43299 14.6623L3.19238 12.0345C3.19175 11.9556 3.12544 11.8962 3.05155 11.8962V11.8969ZM6.93103 17.4044C7.05102 17.4044 7.14891 17.3078 7.15333 17.184L7.33774 14.6649L7.15396 9.38592C7.14891 9.26214 7.05165 9.16551 6.93166 9.16551C6.81041 9.16551 6.71252 9.26277 6.70873 9.38655L6.54517 14.6649L6.70873 17.1853C6.71252 17.3084 6.81041 17.4051 6.93103 17.4051V17.4044ZM10.9337 17.4164C11.0991 17.4164 11.2349 17.2807 11.2381 17.1133V17.1152V17.1133L11.3669 14.6661L11.2381 8.56935C11.2349 8.40263 11.0985 8.26622 10.9337 8.26622C10.7682 8.26622 10.6318 8.40199 10.6293 8.56998L10.5143 14.6649C10.5143 14.6687 10.6293 17.1158 10.6293 17.1158C10.6318 17.2813 10.7688 17.4177 10.9337 17.4177V17.4164ZM8.91719 17.4082C9.06118 17.4082 9.17675 17.2927 9.18054 17.1455V17.1474L9.33716 14.6661L9.18054 9.34866C9.17675 9.20151 9.06055 9.08657 8.91719 9.08657C8.77257 9.08657 8.65637 9.20151 8.65321 9.34866L8.51428 14.6661L8.65384 17.1468C8.657 17.292 8.77257 17.4076 8.91782 17.4076L8.91719 17.4082ZM4.01084 17.3842C4.0961 17.3842 4.16557 17.316 4.17188 17.2257L4.3986 14.663L4.17188 12.2246C4.17125 12.1343 4.09673 12.0668 4.01084 12.0668C3.92432 12.0668 3.85485 12.135 3.8498 12.2259L3.65024 14.663L3.8498 17.2257C3.85548 17.316 3.92432 17.3842 4.01084 17.3842ZM2.10362 17.244C2.16615 17.244 2.21667 17.1948 2.22361 17.1266L2.47812 14.6623L2.22361 12.1053C2.21604 12.0371 2.16551 11.9878 2.10299 11.9878C2.03984 11.9878 1.98932 12.0371 1.983 12.1053L1.75881 14.6623L1.983 17.1259C1.98363 17.1941 2.03984 17.244 2.10299 17.244H2.10362ZM9.92322 9.25961C9.76723 9.25961 9.64219 9.38402 9.63903 9.54254L9.51209 14.6655L9.63903 17.131C9.64219 17.2876 9.76723 17.412 9.92322 17.412C10.0792 17.412 10.2036 17.2882 10.2074 17.1291V17.131L10.3501 14.6655L10.2074 9.54127C10.2036 9.38276 10.0792 9.25898 9.92322 9.25898V9.25961ZM5.95153 17.4095C6.05952 17.4095 6.14857 17.3217 6.15362 17.2093L6.35192 14.6642L6.15362 9.79199C6.14794 9.67958 6.05952 9.5918 5.95153 9.5918C5.84291 9.5918 5.75386 9.67958 5.74944 9.79199L5.57388 14.6642L5.74944 17.2093C5.75386 17.3204 5.84291 17.4082 5.95153 17.4082V17.4095ZM8.16504 17.1682V17.167L8.33555 14.6636L8.16504 9.20656C8.16125 9.07078 8.05389 8.96469 7.9219 8.96469C7.78928 8.96469 7.68255 9.07078 7.67876 9.20656L7.52783 14.663L7.67939 17.1676C7.68318 17.3021 7.78991 17.4076 7.92253 17.4076C8.05452 17.4076 8.16125 17.3015 8.16567 17.1664L8.16504 17.1682ZM21.0482 11.518C20.6441 11.518 20.2582 11.6001 19.9064 11.7472C19.6715 9.08657 17.4409 7 14.7197 7C14.054 7 13.4048 7.13136 12.8314 7.35302C12.6085 7.43891 12.5491 7.52796 12.5472 7.70037V17.0691C12.5497 17.2497 12.6899 17.4 12.8661 17.4183C12.8737 17.4184 20.9958 17.4234 21.0482 17.4234C22.6782 17.4234 24 16.1016 24 14.4716C24 12.841 22.6788 11.5192 21.0482 11.5192V11.518ZM11.9435 7.69216C11.766 7.69216 11.6208 7.83741 11.6182 8.01676L11.485 14.6661L11.6182 17.0792C11.6208 17.2554 11.766 17.4007 11.9435 17.4007C12.1203 17.4007 12.2656 17.2554 12.2687 17.0767V17.0798L12.4133 14.6661L12.2687 8.01613C12.2662 7.83804 12.1203 7.69216 11.9435 7.69216Z" fill="#232323"/>
</g>
<defs>
<clipPath id="clip0_9_726">
<rect width="24" height="24" fill="white"/>
</clipPath>
</defs>
</svg>
