<?xml version="1.0" encoding="UTF-8"?><svg id="Ebene_2" xmlns="http://www.w3.org/2000/svg" viewBox="0 0 155.38 51.12"><defs><style>.cls-1{stroke-width:0px;}</style></defs><g id="Ebene_1-2"><g id="CPM9yo"><path class="cls-1" d="m67.66,32.12c0-7.58,0-15.16,0-22.75,0-2.52.1-2.63,2.63-2.63,2.76,0,5.52-.03,8.28.03,5.02.11,7.56,2.22,8.41,7.11.57,3.3.33,6.52-1.51,9.49-.24.38-.19,1.21.07,1.59,3.32,4.77,3.15,13.12-.41,17.7-1.26,1.63-2.91,2.66-4.96,2.78-3.38.2-6.77.28-10.16.34-1.74.03-2.34-.64-2.35-2.43-.02-3.74,0-7.48,0-11.21Zm8,1.25c0,1.09-.11,2.2.04,3.26.09.63.62,1.2.95,1.79.77-.49,2.13-.91,2.2-1.48.29-2.37.33-4.79.13-7.17-.05-.56-1.39-1.02-2.14-1.52-.39.62-1,1.19-1.12,1.86-.19,1.06-.05,2.17-.05,3.26Zm.05-15.57c0,.86-.16,1.77.05,2.57.16.59.75,1.33,1.28,1.46.44.11,1.37-.45,1.57-.93.82-2.02.94-4.16.04-6.17-.22-.49-1.18-.95-1.76-.9-.43.03-1.01.85-1.14,1.41-.19.81-.05,1.71-.05,2.57Z"/><path class="cls-1" d="m18.48,45.47c-4.78-.08-4.15.96-4.63-4.42-.23-2.52-.75-3.15-3.16-2.78-.64.1-1.45.86-1.67,1.49-.42,1.23-.49,2.58-.68,3.88-.17,1.19-.73,1.87-2.03,1.84-1.55-.04-3.1-.04-4.65,0-1.43.04-1.81-.68-1.61-1.95,1.07-6.56,2.11-13.13,3.2-19.69.84-5.03,1.78-10.05,2.58-15.09.24-1.49.92-2.07,2.4-2.02,2.18.07,4.37.08,6.55,0,1.32-.05,1.89.55,2.1,1.73,1.18,6.83,2.4,13.66,3.54,20.5.78,4.69,1.46,9.4,2.18,14.11.33,2.18.14,2.4-2.05,2.41-.69,0-1.38,0-2.07,0Zm-6.89-27.25c-.16,0-.33,0-.49,0-.47,4.3-.95,8.6-1.43,12.93h3.46c-.53-4.4-1.04-8.67-1.54-12.93Z"/><path class="cls-1" d="m100.31,44.44c-.8.33-2.01,1.09-3.31,1.3-3.77.62-6.51-1.34-6.87-5.16-.31-3.39-.48-6.89-.02-10.25.67-4.83,3.85-6.67,8.59-5.57.83.19,1.8.76,2.06-.57.24-1.2-.62-1.95-1.68-1.93-1.87.04-3.76.24-5.6.6-2.26.44-2.62.28-2.81-2.02-.04-.46-.04-.92-.05-1.38-.02-3.75.1-4.01,3.82-4.37,2.38-.23,4.81-.3,7.19-.1,4.06.34,6.48,3.12,6.51,7.26.05,6.2.03,12.41,0,18.62-.02,4.79,1.1,4.66-4.54,4.55-.98-.02-1.95-.57-3.3-.99Zm-1.7-5.01c.28-.02.56-.03.84-.05.33-.86.88-1.69.96-2.57.15-1.53.01-3.08,0-4.63-.01-.99-.43-1.85-1.47-1.63-.54.12-1.22,1.01-1.29,1.61-.18,1.64-.17,3.31-.02,4.95.07.79.64,1.54.98,2.31Z"/><path class="cls-1" d="m134.1,35.64c.5,2.15,1.74,3.07,3.86,2.82,1.29-.15,2.54-.65,3.82-.98,1.72-.44,2.25-.05,2.22,1.7-.01,1.03-.09,2.06-.21,3.09-.29,2.56-.47,2.96-3.06,3.32-2.29.31-4.71.47-6.97.09-3.9-.64-6.27-3.18-6.96-7.11-1.01-5.82-1.16-11.63.23-17.43,1.05-4.39,3.7-6.56,8.17-6.62,4.65-.07,7.32,1.97,8.49,6.42,1.06,4.02.78,8.08.31,12.13-.15,1.31-.93,2.07-2.3,2.08-1.72.01-3.45-.04-5.17.03-.81.03-1.61.3-2.42.46Zm2.63-9.31c.05,0,.1-.01.15-.02-.18-1.18-.28-2.37-.59-3.52-.1-.37-.71-.79-1.12-.84-.29-.03-.9.49-.94.82-.23,1.8-.42,3.62-.38,5.43,0,.39,1.06,1.05,1.6,1.03.45-.02.98-.81,1.25-1.37.2-.42.04-1.01.04-1.52Z"/><path class="cls-1" d="m37.64,16.93c.62-.24,1.1-.42,1.67-.65,0-1.85.03-3.68-.01-5.52-.03-1.3.53-1.94,1.83-1.92.06,0,.12,0,.17,0,6.99-.01,5.63-.37,5.76,5.44.02.68,0,1.36,0,2,2.85.73,3.23,1.2,3,4.1-.12,1.55.22,3.49-2.32,3.6-.26.01-.69.91-.7,1.4-.06,3.56-.05,7.13-.03,10.69,0,1.06.39,1.82,1.57,2.16.5.14,1.12.86,1.17,1.37.15,1.48.14,2.99,0,4.47-.05.48-.68,1.22-1.11,1.27-1.69.2-3.45.42-5.11.17-2.71-.41-4.08-2.13-4.17-4.89-.16-4.94-.22-9.88-.33-14.82-.02-.76.25-1.61-.9-1.92-.26-.07-.47-.77-.48-1.18-.05-1.95-.02-3.9-.02-5.79Z"/><path class="cls-1" d="m147.06,26.15c0-5.64,0-11.27,0-16.91q0-2.4,2.33-2.56c1.2-.08,2.4-.22,3.61-.23,1.59-.01,2.44.74,2.39,2.44-.09,2.7-.15,5.4-.15,8.1.03,8.74.09,17.48.13,26.22.01,2.46-.16,2.61-2.67,2.61-1.21,0-2.42-.04-3.62.01-1.49.07-2.04-.62-2.03-2.07.04-5.87.01-11.73.01-17.6Z"/><path class="cls-1" d="m123.64,19.21c0,.52,0,1.04,0,1.55-.04,1.79-.32,2.01-2.04,1.67-.5-.1-1.02-.16-1.52-.11-1.85.16-2.35,1.16-1.25,2.64,1.3,1.75,2.84,3.34,4.04,5.15,2.52,3.8,2.45,7.83.34,11.76-2.07,3.84-7.53,5.41-11.46,3.45-.41-.2-.91-.7-.94-1.1-.14-1.76-.18-3.54-.14-5.3.02-.97.69-1.24,1.58-1.03.39.09.78.29,1.17.27.96-.05,2.48.12,2.75-.37.48-.86.54-2.29.16-3.21-.48-1.16-1.55-2.09-2.44-3.05-2.87-3.08-3.94-6.67-3.06-10.79,1.13-5.31,6.86-8.05,11.75-5.58.5.25.88,1.03,1.02,1.64.17.76.04,1.6.04,2.4h.03Z"/><path class="cls-1" d="m31.31,18.15c.77-.94,1.55-2.05,2.49-3,.33-.34,1.14-.55,1.54-.38.35.15.61.91.63,1.4.07,2.12.08,4.25,0,6.37-.02.52-.42,1.33-.84,1.48-2.19.82-2.65,2.56-2.61,4.56.09,4.7.22,9.4.35,14.11.06,2.26-.34,2.71-2.63,2.77-1.09.03-2.18-.04-3.27.04-1.73.13-2.31-.62-2.31-2.32.01-7.75-.07-15.5-.12-23.24,0-1.03-.07-2.07.03-3.1.05-.52.34-1.42.6-1.45,1.74-.18,3.55-.38,5.24-.07.47.09.63,1.89.9,2.83Z"/><path class="cls-1" d="m56.3,51.05c0-.75,0-1.32,0-1.89,0-15.34,0-30.68,0-46.02,0-.4-.02-.81,0-1.21.07-1.1.24-2.05,1.75-1.93,1.27.1,2.08.26,2.07,1.93-.06,15.8-.04,31.6-.03,47.4,0,1.29-.42,1.96-1.84,1.73-.56-.09-1.14-.02-1.97-.02Z"/></g></g></svg>