<?xml version="1.0" encoding="UTF-8"?><svg id="Ebene_2" xmlns="http://www.w3.org/2000/svg" viewBox="0 0 60.9 47.68"><defs><style>.cls-1{stroke-width:0px;}</style></defs><g id="Ebene_1-2"><g id="DyfnYh"><path class="cls-1" d="m17.81,25.69v21.96c-.08,0-.16.01-.24.01-3.74,0-7.48.01-11.21,0-.1,0-.24-.05-.31-.12-1.98-1.97-3.95-3.94-5.92-5.92-.07-.07-.12-.19-.12-.29,0-2.35,0-4.7,0-7.05,0-.04,0-.09,0-.16h13.71v-4.33H.01c0-.06-.01-.12-.01-.19,0-.76,0-1.52,0-2.28,0-.1.06-.23.13-.3.4-.41.81-.81,1.23-1.2.08-.08.22-.14.33-.14,5.31,0,10.61,0,15.92,0,.06,0,.12,0,.2.01Zm-4.1,18.15v-6.14H4.16c0,.64,0,1.26,0,1.89,0,.11.06.25.14.32,1.25,1.26,2.51,2.51,3.76,3.77.11.11.22.16.37.15,1.68,0,3.36,0,5.03,0,.07,0,.15,0,.25,0Z"/><path class="cls-1" d="m.19,0c.1,0,.18,0,.26,0,3.29,0,6.58,0,9.87,0,.16,0,.27.04.39.16,2.14,2.22,4.28,4.44,6.42,6.65.25.26.5.51.74.78.07.07.12.19.12.29,0,4.64,0,9.28,0,13.92v.17H.19V0Zm3.75,4.23v13.59h9.98c0-.05,0-.1,0-.14,0-2.62,0-5.24,0-7.86,0-.1-.06-.21-.13-.28-1.72-1.72-3.43-3.44-5.16-5.16-.09-.09-.24-.15-.37-.15-1.37-.01-2.73,0-4.1,0-.07,0-.15,0-.23.01Z"/><path class="cls-1" d="m43.25,47.66v-.27c0-5,0-10,0-15,0-.17.05-.29.17-.41,1.59-1.56,3.18-3.13,4.77-4.7.49-.49.99-.97,1.49-1.45.08-.07.2-.14.31-.14,3.58,0,7.16,0,10.74,0,.04,0,.09,0,.17.01,0,.08,0,.16,0,.24,0,5.15,0,10.3,0,15.45,0,.11-.06.25-.14.32-1.93,1.94-3.87,3.88-5.81,5.81-.08.08-.21.14-.32.14-3.72,0-7.43,0-11.15,0-.07,0-.13,0-.23-.01Zm13.45-18.2c-.07,0-.1-.01-.13-.01-1.7,0-3.4,0-5.1,0-.1,0-.22.08-.3.15-1.28,1.27-2.54,2.54-3.82,3.81-.11.11-.15.22-.15.37,0,3.29,0,6.58,0,9.87v.25c.09,0,.14.02.2.02,1.87,0,3.73,0,5.6,0,.11,0,.24-.07.32-.15,1.07-1.06,2.13-2.13,3.21-3.19.13-.13.18-.25.18-.43,0-3.47,0-6.94,0-10.41v-.28Z"/><path class="cls-1" d="m21.64,47.67v-21.98h.27c4.04,0,8.09,0,12.13,0,.19,0,.32.06.45.19,1.59,1.6,3.18,3.19,4.78,4.78.12.12.17.23.17.41,0,5.44,0,10.88,0,16.32v.29c-.1,0-.18,0-.26,0-.55,0-1.1,0-1.66,0-.19,0-.34-.05-.48-.17-.32-.27-.64-.53-.97-.79-.13-.1-.18-.21-.18-.38,0-4.01,0-8.03,0-12.04,0-.46-.02-.91,0-1.37.02-.29-.09-.48-.29-.67-.79-.75-1.56-1.52-2.35-2.27-.09-.09-.24-.15-.37-.15-.39-.02-.79,0-1.22,0v7.84h-3.46c0-.09-.01-.19-.01-.28,0-2.43,0-4.85,0-7.28,0-.22-.05-.29-.28-.29-.74.02-1.48,0-2.22,0h-.27v.31c0,5.39,0,10.79,0,16.18,0,.18-.05.3-.19.42-.31.25-.61.53-.92.78-.11.08-.26.14-.4.15-.68.01-1.36,0-2.04,0h-.25Z"/><path class="cls-1" d="m21.68,0c.85,0,1.69,0,2.52,0,.07,0,.15.06.2.12.37.37.74.74,1.11,1.1.11.11.15.22.15.37,0,2.46,0,4.92,0,7.39q0,.32.31.32c3.06,0,6.12,0,9.18,0,.09,0,.19,0,.31,0v-.29c0-2.44,0-4.88,0-7.32,0-.16.04-.28.16-.39.4-.38.78-.78,1.18-1.17.05-.05.13-.12.2-.12.81,0,1.62,0,2.46,0,0,.09.01.17.01.25,0,4.45,0,8.91,0,13.36,0,.11-.05.25-.13.33-1.55,1.65-3.1,3.29-4.65,4.93-.93.99-1.86,1.98-2.8,2.96-.08.08-.21.14-.32.15-3.25,0-6.51,0-9.76,0h-.22c0-.18,0-.33,0-.48,0-.75,0-1.51,0-2.26,0-.12.06-.26.15-.34.28-.3.58-.58.86-.88.12-.13.25-.18.43-.18,2.29,0,4.58,0,6.87,0,.18,0,.3-.04.42-.18,1.24-1.37,2.48-2.74,3.72-4.11.03-.03.05-.07.12-.15-.13,0-.21,0-.29,0-3.53,0-7.06,0-10.59,0-.2,0-.35-.05-.49-.2-.33-.35-.68-.68-1.01-1.02-.06-.06-.11-.16-.11-.25,0-3.94,0-7.88,0-11.82,0-.03,0-.06.01-.12Z"/><path class="cls-1" d="m43.13,21.93V0c.09,0,.18,0,.26,0,3.82.01,7.64.03,11.46.03.16,0,.26.05.37.16,1.8,1.81,3.61,3.61,5.42,5.41.12.12.16.23.16.39,0,5.25,0,10.51,0,15.76v.27c-.1,0-.18,0-.26,0-.75,0-1.49,0-2.24,0-.14,0-.25-.03-.35-.14-.35-.37-.71-.73-1.08-1.08-.12-.11-.16-.23-.16-.39,0-4.12,0-8.24,0-12.36,0-.19-.05-.32-.18-.45-1.07-1.06-2.14-2.13-3.2-3.2-.11-.12-.23-.16-.39-.16-1.83,0-3.66-.01-5.48-.03-.21,0-.26.06-.26.26,0,5.23,0,10.46,0,15.69,0,.19-.05.32-.19.45-.4.38-.78.78-1.18,1.17-.06.06-.14.13-.22.13-.83,0-1.65,0-2.5,0Z"/></g></g></svg>