<?xml version="1.0" encoding="UTF-8"?><svg id="Ebene_2" xmlns="http://www.w3.org/2000/svg" viewBox="0 0 91.99 42.96"><defs><style>.cls-1{stroke-width:0px;}</style></defs><g id="Ebene_1-2"><path class="cls-1" d="m91.99,19.86c-.02.13-.05.27-.06.4-.07.55-.34.81-.87.86-1.64.15-2.93-.59-3.56-2.11-.2-.48-.3-.99-.46-1.54.67,0,1.25,0,1.83,0,.06,0,.14.1.17.17.08.16.12.34.2.5.32.66.94.98,1.66.85.27-.05.45-.2.46-.48.01-.2,0-.4-.03-.6-.12-.64-.3-.88-.96-.94-.64-.06-1.3-.16-1.91-.38-1.11-.41-1.7-1.35-2.05-2.42-.18-.55-.28-1.15-.31-1.74-.04-.77.47-1.34,1.24-1.46.35-.05.7-.06,1.05-.07.53,0,.91.27,1.22.67.57.75.87,1.62,1.2,2.5-.3.08-.49.06-.64-.25-.36-.75-1.04-1.05-1.72-.81-.33.12-.43.28-.36.62.1.54.4.86.95.95.35.06.7.08,1.05.11.5.04.89.29,1.05.74.25.73.45,1.47.62,2.23.13.57.17,1.17.25,1.75v.42Z"/><path class="cls-1" d="m79.8,42.96c-.63-.26-.78-.55-.57-1.22.27-.89.82-1.63,1.37-2.35.04-.06.13-.11.2-.11.47,0,.94,0,1.45,0-.16.29-.34.52-.44.79-.07.19-.15.53-.06.6.15.13.45.16.66.12.23-.04.49-.17.66-.33.39-.38.75-.78,1.08-1.21.21-.26.13-.4-.22-.45-.28-.04-.56-.05-.83-.12-.52-.13-.78-.52-.72-1.06.02-.19.05-.38.12-.56.56-1.4,1.36-2.64,2.61-3.54.81-.59,1.74-.87,2.75-.82.63.03.83.28.56.86-.37.79-.83,1.53-1.27,2.28-.06.1-.28.1-.51.17.14-.3.25-.5.32-.72.11-.3,0-.46-.31-.5-.8-.1-1.56.34-1.86,1.09-.13.32-.04.5.31.56.24.04.48.04.72.07.42.05.53.23.32.58-.31.51-.65,1.01-1.01,1.49-.92,1.2-1.92,2.32-3.03,3.35-.48.45-.99.85-1.64,1.02h-.66Z"/><path class="cls-1" d="m63.94,15.46c.39.13.8.25,1.19.42.63.27,1.19.63,1.51,1.28.6,1.24.15,2.53-1.12,3.13-1.01.48-2.1.63-3.2.64-4.52.03-9.05.03-13.57.04-.06,0-.12,0-.21-.01-.05-3.28-.09-6.55-.14-9.84.17-.01.32-.03.46-.03,3.84,0,7.68,0,11.52,0,1.06,0,2.11.05,3.13.39.36.12.71.27,1.04.46.65.37.98.96,1.04,1.7.05.52-.15.94-.56,1.22-.34.23-.73.4-1.1.6Zm-10.76,3.34c.11.01.15.02.19.02,2.5,0,5.01,0,7.51,0,.27,0,.54-.05.8-.12.46-.13.74-.47.74-.84,0-.38-.28-.72-.75-.83-.34-.08-.69-.12-1.04-.13-2.4-.01-4.8,0-7.2,0-.09,0-.18.01-.24.02v1.89Zm-.12-4.02h.4c2.16,0,4.32,0,6.48,0,.32,0,.64-.05.95-.12.28-.06.54-.17.58-.52.03-.35-.13-.66-.48-.78-.28-.1-.58-.17-.88-.18-2.3-.01-4.6,0-6.9,0-.07,0-.13.02-.23.03.03.52.05,1.03.08,1.58Z"/><path class="cls-1" d="m48.55,21.97c.46,0,.88,0,1.31,0,3.92,0,7.84,0,11.76.02,1.15,0,2.29.11,3.36.59.7.31,1.15.8,1.17,1.6.01.63-.23,1.17-.77,1.51-.43.27-.9.46-1.33.68.29.11.63.24.96.37,1.6.63,1.67,1.93,1.05,3.15-.41.8-1.15,1.21-1.96,1.5-1,.35-2.04.47-3.08.47-4.12.02-8.25.01-12.37.02-.07,0-.14,0-.25-.01.05-3.29.09-6.56.14-9.89Zm4.53,5.83c-.03.54-.05,1.04-.08,1.54-.02.38-.02.38.36.38,2.19,0,4.38,0,6.58,0,.27,0,.54,0,.81-.03.41-.03.79-.15,1.09-.46.46-.49.27-1.18-.39-1.33-.36-.08-.74-.13-1.1-.13-2.28-.01-4.57,0-6.85,0-.13,0-.26.02-.42.03Zm.12-2.15c.1.01.17.03.24.03,2.26,0,4.52,0,6.79,0,.44,0,.89,0,1.28-.26.23-.15.34-.36.32-.64-.01-.27-.16-.47-.41-.54-.31-.08-.63-.16-.94-.16-2.32-.01-4.64,0-6.97,0-.1,0-.19.01-.31.02v1.55Z"/><path class="cls-1" d="m61.65,4.52c.59.26,1.19.47,1.72.78.96.56,1.5,1.43,1.59,2.55.05.63-.21,1.11-.73,1.46-.63.42-1.35.6-2.08.64-1.38.08-2.77.12-4.16.13-3.1.02-6.19,0-9.29,0h-.32c-.14-3.3-.27-6.58-.4-9.88.15,0,.26-.02.38-.02,3.28,0,6.56,0,9.83.02,1.05,0,2.08.2,3.01.74.72.41,1.2,1.02,1.44,1.82.21.7.01,1.19-.62,1.55-.13.07-.26.14-.38.21Zm-9.09,3.37c.07,0,.11.02.15.02,2.29,0,4.59,0,6.88,0,.25,0,.5-.06.73-.14.39-.13.53-.44.43-.84-.08-.32-.25-.59-.56-.7-.36-.12-.74-.23-1.11-.23-2.13-.02-4.26-.01-6.4,0-.1,0-.21.02-.33.03.07.65.14,1.27.2,1.88Zm-.46-4.03c.08,0,.12.01.16.01,1.96,0,3.92,0,5.88,0,.18,0,.36-.02.54-.05.57-.12.74-.48.42-.97-.11-.18-.32-.34-.52-.42-.24-.1-.53-.14-.79-.15-1.84-.02-3.68-.02-5.51-.02-.12,0-.24.04-.38.06.07.54.14,1.04.21,1.55Z"/><path class="cls-1" d="m48.38,32.88c.92,0,1.82,0,2.71,0,3.3,0,6.6-.01,9.89.04.75.01,1.52.18,2.24.4,1.06.33,1.37,1.1.97,2.14-.25.65-.71,1.08-1.33,1.37-.32.15-.64.28-.98.43.27.12.53.22.78.35.81.41,1.08,1.06.81,1.93-.49,1.6-1.63,2.5-3.19,2.94-.98.28-1.98.3-2.99.3-3.05,0-6.09,0-9.14,0-.05,0-.1,0-.18,0,.14-3.29.27-6.56.41-9.89Zm3.5,7.71c.06,0,.11.02.16.02,1.98,0,3.96.02,5.94,0,.35,0,.71-.11,1.05-.22.43-.14.64-.5.72-.93.06-.32-.07-.56-.39-.66-.23-.07-.47-.11-.71-.12-1.6-.01-3.2-.01-4.79-.01-.5,0-1.01,0-1.51,0-.09,0-.23.1-.25.17-.09.57-.16,1.15-.24,1.73Zm.51-4.06c.07.02.09.03.11.03,2.16,0,4.32.01,6.48-.01.31,0,.65-.13.93-.28.29-.16.41-.47.35-.8-.06-.31-.32-.39-.59-.42-.27-.03-.54-.07-.81-.07-1.79,0-3.58,0-5.36,0-.25,0-.5-.01-.75,0-.07,0-.2.09-.2.15-.06.47-.1.93-.15,1.41Z"/><path class="cls-1" d="m30.83,20.93c0-.78-.02-1.54,0-2.3.09-2.35.32-4.69.69-7.01.09-.58-.02-.54.62-.54,4.59,0,9.17,0,13.76,0q.44,0,.44.44c0,.59,0,1.18,0,1.8h-10.74c-.04.45-.08.87-.09,1.29,0,.06.1.14.18.17.07.03.16,0,.24,0,3.25,0,6.5,0,9.74,0h.39v2.23h-10.71c-.03.54-.05,1.06-.08,1.62h11.26v2.29h-15.7Z"/><path class="cls-1" d="m35.48,27.93c.04.52.07.99.13,1.45,0,.07.13.14.21.18.06.03.14,0,.21,0,3.38,0,6.76,0,10.14,0,.1,0,.2,0,.35,0v2.27h-14.89c-.52-3.24-.8-6.51-.83-9.83h15.56v2.2h-11.02v1.44c.16,0,.29.02.42.02,3.32,0,6.64,0,9.95,0,.29,0,.39.08.38.37-.02.62,0,1.24,0,1.89h-10.59Z"/><path class="cls-1" d="m36.27,7.78h10.2v2.27h-14.68c.08-.45.15-.86.23-1.27.55-2.81,1.29-5.57,2.17-8.3.06-.18.12-.3.36-.3,3.82.01,7.64,0,11.47,0,.08,0,.16,0,.25.02v2.22c-.12,0-.24,0-.36,0-2.79,0-5.57,0-8.36,0-.25,0-.35.06-.38.32-.05.37-.14.74-.23,1.14h9.1v2.28c-.11,0-.23,0-.34,0-2.96,0-5.91,0-8.87,0-.23,0-.34.05-.36.3-.04.43-.12.85-.2,1.32Z"/><path class="cls-1" d="m31.81,32.9h14.48v2.22h-10.01c.08.5.15.96.22,1.45h9.54v2.27h-9.12c.11.53.2,1.03.32,1.52.01.06.19.11.3.11,1.85,0,3.7,0,5.55,0,1,0,1.99,0,2.99,0,.11,0,.22,0,.35,0v2.27c-.13,0-.24,0-.36,0-3.79,0-7.58,0-11.37,0-.28,0-.39-.08-.48-.35-.99-3.04-1.78-6.12-2.36-9.27-.01-.07-.02-.14-.03-.24Z"/><path class="cls-1" d="m71.64,14.46c.37,2.16.62,4.28.62,6.47h-3.94c-.06-3.31-.45-6.57-1.21-9.81.16-.01.3-.03.43-.03,1.14,0,2.27-.01,3.41,0,.23,0,.48.08.67.2,2.67,1.81,5.29,3.69,7.77,5.76.07.06.14.1.27.19-.29-2.12-.82-4.12-1.52-6.11.29-.02.55-.05.8-.05.59,0,1.19.02,1.78.01.17,0,.24.06.3.22.75,1.98,1.32,4,1.6,6.1.14,1.03.2,2.08.3,3.12.01.13,0,.26,0,.41-.13.01-.25.03-.37.03-.76,0-1.53.01-2.29,0-.18,0-.4-.08-.54-.21-2.44-2.23-5.08-4.2-7.78-6.09-.09-.06-.18-.12-.32-.2Z"/><path class="cls-1" d="m79.17,28.15c.51-2.04.72-4.08.81-6.14h2.98c-.05.74-.08,1.46-.16,2.18-.27,2.54-.88,4.99-1.79,7.38-.09.23-.19.3-.43.3-.74-.02-1.49-.02-2.23,0-.21,0-.32-.07-.43-.24-1.58-2.38-3.6-4.36-5.75-6.22-.01-.01-.04-.01-.08-.03-.08.59-.14,1.17-.25,1.75-.3,1.5-.63,3-.95,4.5-.03.13-.06.24-.24.23-1.15,0-2.29,0-3.44,0-.03,0-.06-.01-.11-.02.76-3.23,1.17-6.5,1.23-9.86.56,0,1.1,0,1.64,0,.79,0,1.59,0,2.38,0,.3,0,.54.09.77.28,2.12,1.74,4.14,3.59,5.89,5.73.04.05.09.1.18.19Z"/><path class="cls-1" d="m63.14,42.77c1.54-3.21,2.79-6.47,3.68-9.88.21,0,.4,0,.6,0,1.04,0,2.07,0,3.11-.02.32,0,.54.09.75.34,1.38,1.68,2.54,3.49,3.2,5.58.02.07.05.13.1.24.18-.29.37-.54.5-.81.84-1.67,1.67-3.34,2.48-5.02.12-.24.24-.33.51-.33.77.02,1.54,0,2.37,0-.13.34-.22.65-.36.93-1.53,3.07-3.34,5.97-5.48,8.67-.17.22-.36.31-.64.3-.52-.02-1.05-.01-1.57,0-.22,0-.31-.04-.34-.29-.26-2.31-1.28-4.31-2.64-6.15-.02-.02-.05-.03-.08-.06-.28.64-.53,1.29-.83,1.9-.7,1.42-1.43,2.83-2.13,4.25-.13.26-.28.36-.58.35-.86-.02-1.73,0-2.65,0Z"/><path class="cls-1" d="m68.06,3.6c.97,2.13,1.82,4.23,2.49,6.49-.45,0-.85,0-1.25,0-.72,0-1.45,0-2.17,0-.18,0-.29-.04-.34-.25-.85-3.25-2.04-6.38-3.48-9.41-.03-.06-.05-.13-.09-.22.12,0,.22-.01.32-.01.86,0,1.73.01,2.59,0,.36,0,.66.09.96.29,2.85,1.88,5.7,3.76,8.56,5.64.08.05.17.11.28.14-1.03-2.11-2.3-4.07-3.7-6.01.16-.02.27-.04.37-.04.23,0,.46-.01.69-.01.4,0,.86-.09,1.18.07.32.15.51.58.75.89,2.01,2.63,3.75,5.41,5.1,8.44.06.14.12.29.21.5-.16,0-.28,0-.39,0-.67,0-1.35.02-2.02,0-.22,0-.46-.08-.64-.2-3.03-2.02-6.06-4.06-9.08-6.09-.08-.05-.17-.1-.32-.18Z"/><path class="cls-1" d="m13.33,15.96c.21.11.4.19.57.29.68.38,1.07.93,1.04,1.73-.02.51-.08,1.02-.09,1.53,0,.47.03.93.04,1.43-.04,0-.15.02-.27.02-.9,0-1.79,0-2.69,0-.31,0-.45-.12-.44-.42.01-.43.04-.86.05-1.29,0-.13,0-.26,0-.39-.03-.9-.34-1.3-1.23-1.35-1.24-.07-2.49-.05-3.74-.06-.07,0-.2.15-.22.25-.1.82-.18,1.64-.26,2.46-.02.25-.03.5-.04.76h-2.06c0-.45-.03-.89,0-1.33.23-2.87.96-5.61,2.1-8.25.09-.2.19-.28.42-.28,1.88.01,3.76,0,5.64,0,.79,0,1.56.05,2.31.33,1.05.39,1.45,1.09,1.22,2.19-.23,1.12-.96,1.79-1.98,2.2-.12.05-.24.09-.4.16Zm-6.48-.75c.09.04.1.05.12.05,1.35,0,2.71.02,4.06-.01.52-.01.93-.3,1.13-.82.24-.62-.03-1.06-.69-1.08-1.29-.03-2.59-.01-3.88-.01-.07,0-.19.05-.21.11-.19.58-.36,1.16-.54,1.76Z"/><path class="cls-1" d="m13.36,26.87c.31.15.59.27.87.41.76.38,1.26.97,1.49,1.8.11.41.21.82.34,1.22.17.51.36,1.01.55,1.55-.03,0-.12.02-.22.02-.86,0-1.73,0-2.59,0-.26,0-.42-.11-.5-.34-.18-.52-.38-1.04-.54-1.56-.32-1.03-1-1.58-2.08-1.59-1.16-.01-2.31,0-3.47,0-.03,0-.06.02-.16.05.4,1.13.79,2.24,1.2,3.41-.23.01-.45.03-.68.03-.35,0-.7,0-1.06,0-.16,0-.25-.05-.32-.2-.91-2.09-1.6-4.24-1.95-6.5-.16-1.04-.23-2.09-.35-3.2.17,0,.29,0,.4,0,2.06,0,4.12,0,6.18.01.99,0,1.97.12,2.88.54,1.16.53,1.74,1.62,1.5,2.82-.1.49-.37.86-.79,1.12-.23.14-.47.26-.73.41Zm-7.13-2.66c.09.56.19,1.08.24,1.61.03.28.15.36.42.36,1.1-.01,2.21,0,3.31,0,.24,0,.48-.02.72-.07.51-.11.72-.44.64-.95-.07-.44-.32-.75-.76-.83-.41-.08-.83-.1-1.25-.11-1.09-.01-2.18,0-3.32,0Z"/><path class="cls-1" d="m15.34,42.77c-.54,0-1.02,0-1.49,0-.09,0-.2-.1-.27-.18-2.6-2.86-4.9-5.93-6.65-9.39-.04-.09-.08-.18-.13-.29.11,0,.19-.02.27-.02,2.06,0,4.12-.01,6.18.02,1.15.02,2.25.27,3.24.9.81.52,1.33,1.28,1.61,2.19.24.77.05,1.21-.72,1.77.13.05.23.1.33.13,1.1.41,1.96,1.11,2.6,2.1.58.89,1.19,1.76,1.79,2.64.02.03.04.06.08.13-.84,0-1.64.01-2.44-.01-.14,0-.31-.15-.4-.28-.5-.64-.97-1.3-1.47-1.95-.67-.87-1.51-1.34-2.65-1.26-.71.05-1.43,0-2.14,0-.14,0-.27,0-.41,0-.02.03-.04.06-.05.09.89,1.12,1.78,2.23,2.72,3.41Zm-5.37-7.64c.02.08.03.12.04.15.32.54.62,1.08.96,1.6.06.1.25.17.38.17.5.02,1,0,1.51,0,.63,0,1.27,0,1.9-.01.46-.02.62-.28.47-.72-.23-.7-.83-1.18-1.57-1.2-1.21-.02-2.43,0-3.68,0Z"/><path class="cls-1" d="m17.35,5.07c.11.08.18.12.24.17.51.36.73.84.54,1.44-.19.62-.46,1.22-.68,1.83-.18.5-.34,1-.52,1.55-.61,0-1.3,0-1.99,0-.27,0-.54,0-.81,0-.27.01-.32-.11-.23-.33.24-.58.49-1.16.72-1.75.08-.2.14-.42.17-.63.04-.3-.09-.53-.39-.63-.17-.06-.35-.11-.53-.11-1.02-.02-2.03-.02-3.05-.03-.23,0-.34.13-.43.31-.53.99-1.06,1.98-1.58,2.98-.09.18-.19.24-.39.24-.54-.01-1.08,0-1.68,0,.08-.18.14-.34.21-.48,1.26-2.49,2.8-4.8,4.59-6.95.62-.74,1.25-1.47,1.86-2.22.15-.18.31-.25.54-.25,1.62.01,3.24,0,4.86.01.49,0,.96.08,1.4.31.45.25.65.63.53,1.13-.38,1.55-1.36,2.58-2.8,3.21-.17.07-.35.14-.58.23Zm-5.35-.71c1.21,0,2.33.01,3.46,0,.79-.01,1.34-.45,1.7-1.11.28-.52.11-.81-.49-.81-.99,0-1.99,0-2.98,0-.11,0-.26.03-.32.11-.45.58-.88,1.17-1.36,1.82Z"/><path class="cls-1" d="m21.33,11.1c-.64,2.45-1.12,4.89-1.29,7.41h9.11v2.41h-12.95c0-.34-.01-.68,0-1.02.15-2.9.65-5.74,1.5-8.52.06-.21.15-.3.39-.3,1.06.01,2.13,0,3.24,0Z"/><path class="cls-1" d="m16.19,22.01h3.71c.03.5.05.99.08,1.48.09,1.9.35,3.78.73,5.64.05.25.15.3.38.3,2.73,0,5.45,0,8.18,0,.13,0,.26,0,.41,0,.13.82.26,1.62.39,2.44h-.35c-3.85,0-7.7,0-11.55,0-.25,0-.35-.07-.43-.32-.93-3.04-1.48-6.14-1.55-9.33,0-.05,0-.1,0-.21Z"/><path class="cls-1" d="m22.48,7.6h8.29c-.18.83-.35,1.63-.52,2.44h-12.08c.04-.12.06-.22.1-.32,1.18-3.29,2.77-6.39,4.66-9.33.05-.08.15-.19.23-.19.89-.01,1.78,0,2.72,0-1.22,2.45-2.52,4.81-3.39,7.41Z"/><path class="cls-1" d="m18.22,32.89h3.44c.29.83.55,1.68.88,2.49.64,1.56,1.34,3.09,2.01,4.64.09.21.21.29.45.29,2.31-.01,4.62,0,6.94-.01.22,0,.32.06.38.27.2.63.43,1.25.65,1.88.03.09.05.19.09.31-.13,0-.22.01-.32.01-3.1,0-6.19,0-9.29,0-.22,0-.36-.06-.47-.24-.74-1.28-1.53-2.55-2.23-3.85-.89-1.66-1.71-3.36-2.34-5.14-.07-.2-.12-.4-.18-.64Z"/><path class="cls-1" d="m88.23,28.37c-.02.27-.05.5-.05.74,0,.44.2.68.63.78.59.14,1.1-.1,1.33-.65.11-.26.19-.53.26-.8.08-.32-.01-.45-.34-.51-.29-.05-.58-.08-.87-.11-1.32-.13-2.01-.84-2.02-2.16,0-.76.13-1.52.47-2.22.5-1.03,1.35-1.53,2.47-1.61.3-.02.6,0,.9,0,.43.02.67.2.78.62.17.62.13,1.25.05,1.88-.03.23-.07.45-.11.69h-.46c-.02-.2-.02-.41-.06-.61-.06-.34-.22-.51-.57-.51-.31,0-.62.03-.92.1-.38.09-.63.49-.61.9.02.36.23.55.69.62.32.05.64.07.96.11.45.05.65.24.61.69-.05.52-.16,1.03-.29,1.53-.28,1.1-.7,2.16-1.26,3.15-.61,1.07-1.91,1.39-2.96.74-.53-.33-.77-.84-.76-1.42.01-.6.15-1.21.25-1.81,0-.05.1-.14.15-.14.57-.01,1.14,0,1.73,0Z"/><path class="cls-1" d="m84.18,3.31c-.15-.08-.32-.13-.44-.23-.28-.23-.53-.49-.81-.72-.32-.26-.7-.35-1.11-.25-.3.07-.36.21-.2.48.45.75,1.09,1.21,1.99,1.2.65,0,1.16.21,1.6.68,1.34,1.42,2.44,3.01,3.29,4.76.04.08.08.16.1.25.15.5.03.67-.48.73-1.23.13-2.26-.36-3.2-1.08-.89-.67-1.53-1.55-2.15-2.56.26,0,.47,0,.68,0,1.15.02.87-.18,1.59.67.4.47.88.83,1.53.87.05,0,.1,0,.15,0,.5-.01.61-.21.35-.65-.04-.06-.08-.11-.11-.18-.43-.89-1.13-1.26-2.13-1.28-.98-.02-1.84-.47-2.61-1.07-1.18-.92-2.09-2.05-2.79-3.36-.12-.22-.19-.48-.25-.74-.09-.4.09-.69.5-.79.65-.16,1.29-.07,1.79.36.73.62,1.42,1.3,2.11,1.97.25.24.46.52.69.78-.03.04-.06.08-.09.12Z"/><path class="cls-1" d="m82.16,31.86c1.28-3.18,2.03-6.43,2.12-9.84h2.43c-.03.57-.05,1.12-.1,1.68-.26,2.73-.97,5.34-2.02,7.87-.1.23-.21.31-.46.31-.64-.02-1.28,0-1.96,0Z"/><path class="cls-1" d="m82.21,11.1c.75,0,1.46,0,2.17,0,.07,0,.17.12.21.21.7,1.65,1.24,3.35,1.6,5.1.29,1.41.47,2.83.5,4.27,0,.08,0,.16-.01.25h-2.39c-.07-3.39-.8-6.65-2.07-9.83Z"/><path class="cls-1" d="m.04,21.99h3.07c.06.73.11,1.46.17,2.22H.56c.09.49.16.93.25,1.36.01.06.17.12.26.12.68,0,1.37.01,2.05,0,.21,0,.32.05.36.28.13.65.3,1.29.47,1.97H1.36c.19.57.37,1.09.55,1.63.75,0,1.49.02,2.23,0,.37-.02.55.08.67.44.21.62.48,1.21.75,1.86h-1.02c-.58,0-1.17,0-1.75,0-.1,0-.24-.07-.28-.14C1.03,28.68.15,25.49.03,22.11c0-.03,0-.06,0-.12Z"/><path class="cls-1" d="m1.39,14.78h2.57c-.18.75-.35,1.48-.53,2.23H.82c-.09.55-.18,1.08-.28,1.65h2.8c-.05.78-.1,1.52-.16,2.27H0c.05-.68.08-1.35.16-2.01.31-2.64,1.09-5.15,2.22-7.56.1-.2.21-.27.43-.27.85.01,1.71,0,2.61,0-.07.18-.13.33-.19.47-.2.5-.41,1-.6,1.51-.07.18-.16.26-.37.26-.69-.02-1.39,0-2.08,0-.21,0-.34.06-.4.27-.12.38-.25.76-.39,1.19Z"/><path class="cls-1" d="m75.51.19c.61,0,1.17,0,1.72,0,.09,0,.19.06.25.13,2.56,2.91,4.79,6.04,6.47,9.55.02.04.02.08.05.15-.13.02-.25.05-.38.05-.54,0-1.09.01-1.63,0-.1,0-.25-.09-.29-.18-1.57-3.45-3.65-6.58-6.04-9.51-.04-.05-.07-.09-.15-.19Z"/><path class="cls-1" d="m83.99,32.89c-.33.63-.61,1.2-.92,1.76-1.5,2.75-3.35,5.24-5.38,7.62-.32.38-.64.56-1.12.51-.36-.04-.72,0-1.15,0,.12-.16.2-.28.29-.39,1.92-2.35,3.63-4.83,5.04-7.51.3-.57.58-1.15.85-1.73.08-.18.17-.26.38-.25.64.01,1.29,0,2.01,0Z"/><path class="cls-1" d="m12.94.23c-.54.61-1.06,1.19-1.56,1.8-.24.3-.5.44-.9.41-.47-.04-.94-.02-1.42,0-.14,0-.32.05-.4.15-.37.4-.71.82-1.1,1.28h2.18c-.08.15-.13.24-.19.33-.41.57-.82,1.14-1.23,1.72-.14.19-.3.27-.54.26-.56-.01-1.13-.02-1.69,0-.14,0-.32.06-.39.16-.33.45-.64.92-.99,1.45h2.53c-.43.78-.82,1.5-1.22,2.22-.03.05-.11.09-.17.09-.89,0-1.79,0-2.68,0-.02,0-.03-.02-.08-.05.04-.09.08-.19.13-.28,1.6-2.92,3.61-5.53,5.86-7.97.42-.46.85-.92,1.3-1.34.14-.13.36-.22.55-.23.63-.03,1.27,0,1.9,0,.02,0,.04.01.11.04Z"/><path class="cls-1" d="m3.12,32.89c.95,0,1.84,0,2.72,0,.07,0,.18.06.21.12.38.68.76,1.36,1.16,2.09h-2.47c.34.5.62.94.94,1.36.06.08.21.1.32.11.62.01,1.25,0,1.87.01.1,0,.24.06.3.14.48.65.95,1.32,1.42,1.98.02.02.02.05.04.12h-2.12c.09.14.14.23.21.31.31.37.61.75.94,1.1.12.12.32.21.49.22.57.03,1.15,0,1.72.02.14,0,.33.06.42.16.58.63,1.14,1.27,1.7,1.92.04.04.06.1.11.19-.13.01-.22.02-.31.02-.58,0-1.17.01-1.75,0-.16,0-.37-.07-.48-.19-2.77-2.78-5.25-5.79-7.18-9.22-.08-.14-.15-.28-.25-.47Z"/></g></svg>