<?xml version="1.0" encoding="UTF-8"?><svg id="Ebene_2" xmlns="http://www.w3.org/2000/svg" viewBox="0 0 53.36 52.79"><defs><style>.cls-1{stroke-width:0px;}</style></defs><g id="Ebene_1-2"><g id="Ntg4w6"><path class="cls-1" d="m18.27,7.87h1.78c.04,1.03.7,1.49,1.57,1.71.95.24,1.85.14,2.64-.5.64-.52.8-1.76-.3-2.17-.62-.23-1.28-.34-1.93-.46-.89-.17-1.78-.34-2.52-.93-.63-.5-.93-1.17-.98-1.96-.1-1.36.53-2.34,1.69-2.94,1.67-.87,3.35-.83,4.93.25.81.55,1.19,1.38,1.27,2.39-.56,0-1.1,0-1.64,0-.05,0-.13-.07-.14-.12-.26-.94-1.01-1.23-1.86-1.33-.65-.07-1.29.03-1.86.4-.54.36-.74.87-.57,1.44.1.35.34.59.67.69.52.16,1.05.27,1.59.37.88.16,1.73.37,2.51.82,1.75,1.01,1.77,3.31.67,4.53-.69.77-1.58,1.18-2.57,1.34-1.35.22-2.61-.06-3.71-.9-.85-.65-1.28-1.53-1.25-2.63Z"/><path class="cls-1" d="m.07,21.62h1.77c-.03.62.27,1.07.77,1.38.62.38,1.31.52,2.04.42.48-.07.92-.22,1.31-.52.76-.59.9-1.86-.32-2.28-.66-.23-1.37-.32-2.07-.46-.78-.15-1.55-.33-2.2-.82-1.23-.93-1.45-2.79-.5-4.02.7-.91,1.66-1.33,2.77-1.48,1.07-.15,2.08.03,3,.59.96.58,1.46,1.45,1.56,2.58h-1.75c-.19-.82-.76-1.22-1.54-1.38-.79-.16-1.55-.09-2.24.37-.46.31-.67.74-.57,1.29.09.48.42.76.86.87.6.16,1.22.26,1.84.38.85.17,1.66.43,2.38.94,1.39.99,1.47,3.05.45,4.26-.71.84-1.64,1.27-2.7,1.43-1.32.2-2.54-.07-3.61-.89C.47,23.62,0,22.76.07,21.62Z"/><path class="cls-1" d="m16.4,11.36h-6.97V.17h6.88v1.77h-5.07v2.93h4.58v1.78h-4.58v2.92h5.16v1.79Z"/><path class="cls-1" d="m27.74,13.91h6.87v1.76h-5.08v2.94h4.58v1.81h-4.58v2.93h5.16v1.77h-6.94v-11.2Z"/><path class="cls-1" d="m48.21,18.61h4.57v1.79h-4.57v2.93h5.15v1.77h-6.95v-11.19h6.88v1.76h-5.08v2.94Z"/><path class="cls-1" d="m12.46,21.45v3.66h-1.79v-11.21c.08,0,.16-.01.24-.01,1.33,0,2.66-.02,4,0,1.51.03,2.91.88,3.37,2.45.4,1.37.29,2.69-.65,3.84-.67.82-1.58,1.2-2.62,1.25-.74.04-1.48.01-2.21.01-.1,0-.19,0-.34,0Zm.03-5.73v3.95c.83,0,1.64,0,2.45,0,.36,0,.69-.11.98-.32.65-.47.85-1.14.78-1.9-.09-.96-.72-1.67-1.57-1.71-.87-.05-1.74-.01-2.64-.01Z"/><path class="cls-1" d="m7.34.17v1.76H2.4v2.92h4.37v1.79H2.39v4.7H.61V.17h6.73Z"/><path class="cls-1" d="m27.67,1.95V.19h8.43v1.75h-3.29v9.45h-1.79V1.95h-3.35Z"/><path class="cls-1" d="m25.12,23.34v1.77h-4.83v-1.76h1.52v-7.66h-1.52v-1.77h4.82v1.76h-1.49v7.66h1.5Z"/><path class="cls-1" d="m37.35,13.9h1.75v9.44h5.18v1.77h-6.94v-11.2Z"/><path class="cls-1" d="m20.61,27.9c.36,0,.7,0,1.04,0,1.11,0,2.22-.03,3.32.04,1.66.1,2.84,1.3,3,2.99.16,1.68-.83,3.64-3.37,3.69-.27,0-.53,0-.8,0,1.47,1.5,2.93,2.99,4.39,4.49-.4.01-.77.07-1.14-.31-1.28-1.33-2.6-2.62-3.91-3.92-.08-.08-.18-.15-.26-.21.03-.07.04-.09.04-.12.16-.46.47-.61.96-.57.58.05,1.17.05,1.73-.15,1.04-.37,1.71-1.35,1.74-2.45.03-1.19-.62-2.24-1.63-2.61-.33-.12-.7-.2-1.05-.21-1.13-.03-2.27,0-3.43,0v10.56h-.63v-11.21Z"/><path class="cls-1" d="m.19,38.68c1.27-1.67,2.54-3.35,3.82-5.03,1.28-1.68,2.55-3.36,3.86-5.08H.56v-.65c.08,0,.17-.01.25-.01,2.49,0,4.99,0,7.48,0,.1,0,.22.08.29.16.09.09.14.21.21.33-2.55,3.35-5.11,6.71-7.69,10.1h7.67v.62h-.31c-2.53,0-5.06,0-7.59,0-.35,0-.59-.06-.71-.45Z"/><path class="cls-1" d="m10.38,44.41c-.18.11-.34.21-.52.32-.18-.26-.35-.53-.55-.78-1.69-2.09-4.57-2.44-6.72-.82-2.23,1.68-2.6,5.07-.8,7.2.95,1.12,2.15,1.77,3.62,1.79,1.89.03,3.3-.84,4.31-2.4.04-.07.08-.14.13-.23.18.11.35.22.52.32-.99,2.02-3.21,3.13-5.31,2.95-2.73-.24-4.84-2.47-5.05-5.18-.21-2.65,1.42-5.09,3.87-5.85,2.46-.76,5.13.21,6.5,2.68Z"/><path class="cls-1" d="m13.02,46.73h6.4v-5.17h.62v11.16h-.6v-5.32h-6.4v5.32h-.61v-11.16h.6v5.17Z"/><path class="cls-1" d="m10.4,27.93h.63v.32c0,2.47.02,4.93,0,7.4-.02,1.28.57,2.11,1.71,2.56,1.43.57,2.81.46,4.08-.46.62-.45.91-1.1.92-1.86,0-2.55,0-5.09,0-7.64,0-.1,0-.19,0-.31h.64c0,.09,0,.18,0,.28,0,2.46-.03,4.91.01,7.37.03,1.7-.97,2.9-2.4,3.35-1.59.49-3.11.34-4.47-.7-.73-.55-1.12-1.32-1.12-2.23-.02-2.66,0-5.33,0-7.99,0-.02,0-.03.02-.08Z"/><path class="cls-1" d="m29.68,28.54v-.6h3.92v.59h-1.63v9.98h1.64v.6h-3.92v-.59h1.64v-9.98h-1.64Z"/><path class="cls-1" d="m24.09,41.48c.91.01,1.51.62,1.5,1.51-.02.83-.7,1.48-1.54,1.48-.81,0-1.46-.72-1.45-1.56.01-.84.64-1.44,1.5-1.42Z"/><path class="cls-1" d="m24.05,52.78c-.78,0-1.46-.7-1.46-1.5,0-.86.63-1.5,1.46-1.49.91,0,1.52.6,1.53,1.48,0,.82-.69,1.51-1.54,1.51Z"/><path class="cls-1" d="m15.46,27.88c.3,0,.49.18.5.47,0,.26-.23.5-.49.5-.25,0-.49-.23-.49-.48,0-.27.21-.49.48-.49Z"/><path class="cls-1" d="m13.15,27.88c.3,0,.49.19.48.49,0,.27-.24.49-.5.48-.25,0-.47-.24-.47-.49,0-.27.21-.48.5-.48Z"/></g></g></svg>