<?xml version="1.0" encoding="UTF-8"?><svg id="Ebene_2" xmlns="http://www.w3.org/2000/svg" viewBox="0 0 44.06 42.25"><defs><style>.cls-1,.cls-2{stroke-width:0px;}.cls-2{fill:#fff;}</style></defs><g id="Ebene_1-2"><g id="AKXd81.tif"><path class="cls-1" d="m0,11.08V.7C.58.47,1.15.05,1.73.04,5.57-.02,9.42,0,13.27,0c7.77,0,15.54,0,23.31,0,1.45,0,1.74.3,1.75,1.76,0,.71,0,1.42,0,2.18,1.45,0,2.72,0,3.99,0,1.41,0,1.74.34,1.75,1.79,0,2.54,0,5.08,0,7.61,0,2.01-.02,2.04-1.96,2.4v2.93c1.94.38,1.96.4,1.96,2.44,0,6.42.02,12.84-.03,19.27,0,.62-.4,1.24-.62,1.87H7.85c-1.26-1.07-.33-2.62-.82-3.93-1.35,0-2.69-.02-4.03,0-1.01.02-1.49-.45-1.49-1.45,0-6.83,0-13.66,0-20.49,0-1.08.53-1.52,1.57-1.49.87.03,1.74,0,2.57,0v-3.2c-1.31,0-2.54.07-3.76-.03-.64-.05-1.26-.38-1.89-.59Zm2.99,5.29v20.48h33.88v-20.45h-17.63v8.69c.48,0,.9,0,1.31,0,2.5,0,5,.02,7.5,0,1.08-.01,1.55.47,1.51,1.54-.03.88,0,1.77,0,2.65,0,1.46-.22,1.68-1.67,1.69-4.27,0-8.54,0-12.81,0-1.56,0-1.83-.25-1.83-1.79,0-3.85,0-7.69,0-11.54,0-.41,0-.81,0-1.26H2.99Zm-1.54-6.19h35.4V1.47H1.45v8.71Z"/><path class="cls-2" d="m2.99,16.38h10.25c0,.45,0,.85,0,1.26,0,3.85,0,7.69,0,11.54,0,1.54.27,1.79,1.83,1.79,4.27,0,8.54,0,12.81,0,1.45,0,1.66-.23,1.67-1.69,0-.88-.02-1.77,0-2.65.04-1.06-.42-1.55-1.51-1.54-2.5.03-5,0-7.5,0-.41,0-.83,0-1.31,0v-8.69h17.63v20.45H2.99v-20.48Z"/><path class="cls-2" d="m1.45,10.19V1.47h35.4v8.71H1.45Z"/></g></g></svg>