<?xml version="1.0" encoding="UTF-8"?><svg id="Ebene_2" xmlns="http://www.w3.org/2000/svg" viewBox="0 0 156.65 42.25"><defs><style>.cls-1{stroke-width:0px;}</style></defs><g id="Ebene_1-2"><path class="cls-1" d="m0,0h49.05v42.21h-10.42V10.12h-9.03v32.11h-9.99V10.12h-9.03v32.1H0V0Z"/><path class="cls-1" d="m68.95,32.83h18.81v9.42h-29.43V.07h29.38v9.86h-18.75v6.4h17.24v9.53h-17.25v6.97Z"/><path class="cls-1" d="m156.65,9.99h-12.08v32.26h-10.57c0-.76,0-1.46,0-2.16,0-9.41-.03-18.83.03-28.24.01-1.55-.47-1.96-1.96-1.91-3.14.1-6.3.03-9.57.03V.09h34.15v9.9Z"/><path class="cls-1" d="m96.48,0h10.32v32.72h18.09v9.51h-28.4V0Z"/></g></svg>