<?xml version="1.0" encoding="UTF-8"?><svg id="Ebene_2" xmlns="http://www.w3.org/2000/svg" viewBox="0 0 82.9 31.86"><defs><style>.cls-1{fill:#1d1d1b;stroke-width:0px;}</style></defs><g id="Ebene_1-2"><path class="cls-1" d="m28.64,5.35h-2.25s-2.25,0-2.25,0l-1.25,5.26-1.25,5.26h-4.5s-4.5,0-4.5,0l1.06-4.5,1.06-4.5-5.56,4.5-5.56,4.5h-1.82s-1.82,0-1.82,0l6.5-5.26,6.5-5.26h-5.23s-5.23,0-5.23,0l.23-.98.23-.98h12.59l.4-1.69.4-1.69h9l-.4,1.69-.39,1.69h2.25s2.25,0,2.25,0l-.22.99-.22.99Zm28.18,0h-2.25s-2.25,0-2.25,0l-1.24,5.26-1.24,5.26h-4.51s-4.51,0-4.51,0l1.06-4.5,1.06-4.5-5.56,4.5-5.56,4.5h-3.65l6.5-5.26,6.5-5.26h-5.23s-5.23,0-5.23,0l.24-.98.24-.98h12.59l.4-1.69L44.55,0h4.5s4.5,0,4.5,0l-.4,1.69-.4,1.69h2.25s2.25,0,2.25,0l-.22.99-.22.99Zm17.52,3.47l-.82,3.52-.82,3.52h-9.01l.82-3.52.82-3.52h-3.64s-3.64,0-3.64,0l.24-.98.24-.98h7.28l.18-.75.18-.75h-3.65s-3.65,0-3.65,0l.24-.98.24-.98h3.64s3.64,0,3.64,0l.4-1.69.4-1.69h4.5s4.5,0,4.5,0l-.4,1.69-.4,1.69h3.64s3.64,0,3.64,0l-.22.98-.22.98h-3.64s-3.63,0-3.63,0l-.19.75-.19.75h7.28l-.24.99-.24.99h-3.64s-3.64,0-3.64,0ZM21.27,31.86c-.37,0-.69-.05-.96-.14-.28-.1-.5-.24-.69-.43-.18-.19-.32-.43-.41-.72-.09-.29-.14-.63-.14-1.01v-7.3c0-.39.05-.73.14-1.02.09-.29.23-.53.41-.73.18-.19.41-.34.68-.44.27-.1.59-.15.95-.15h2.61c.36,0,.68.05.95.15.27.1.5.24.68.44.18.19.32.44.41.73.09.29.14.63.14,1.02v1.83s0,1.83,0,1.83v1.82s0,1.82,0,1.82c0,.39-.05.72-.14,1.01-.09.29-.23.53-.41.72-.18.19-.41.34-.69.43-.28.1-.6.14-.96.14h-2.57Zm1.3-1.65h.93c.12,0,.22-.02.31-.05.09-.03.16-.08.22-.15.06-.07.11-.15.14-.25.03-.1.04-.22.04-.35v-7.06c0-.13-.02-.25-.05-.35-.03-.1-.08-.18-.15-.25-.07-.07-.15-.12-.26-.15-.1-.03-.22-.05-.35-.05h-.85c-.13,0-.25.02-.35.05-.1.03-.18.08-.25.15-.07.07-.12.15-.15.25-.03.1-.05.22-.05.35v1.76s0,1.76,0,1.76v1.76s0,1.76,0,1.76c0,.13.02.25.05.35.03.1.09.18.15.25.06.07.15.11.25.15.1.03.22.05.36.05Zm12.47,1.65c-.36,0-.68-.05-.96-.14-.27-.1-.5-.24-.69-.43-.18-.19-.32-.43-.41-.72-.09-.29-.14-.63-.14-1.01v-7.3c0-.39.05-.73.14-1.02.09-.29.23-.53.41-.73.18-.19.41-.34.68-.44.27-.1.59-.15.95-.15h2.61c.36,0,.68.05.95.15.27.1.5.24.68.44.18.19.32.44.41.73.09.29.14.63.14,1.02v1.83s0,1.83,0,1.83v3.65c0,.39-.05.72-.14,1.01-.09.29-.23.53-.41.72-.18.19-.41.34-.69.43-.28.1-.6.14-.96.14h-2.57Zm1.31-1.65h.93c.12,0,.22-.02.31-.05.09-.03.16-.08.22-.15.06-.07.11-.15.14-.25.03-.1.04-.22.04-.35v-7.06c0-.13-.02-.25-.05-.35-.03-.1-.09-.18-.16-.25-.06-.07-.15-.12-.25-.15-.1-.03-.22-.05-.36-.05h-.85c-.13,0-.25.02-.35.05-.1.03-.18.08-.25.15-.07.07-.12.15-.15.25-.03.1-.05.22-.05.35v7.06c0,.13.02.25.05.35.03.1.08.18.16.25.07.07.15.11.26.15.1.03.22.05.36.05Zm13.05,1.65h-2.68v-11.94h2.68v11.94Zm5.41,0h-2.21l-1.55-2.94-1.55-2.94,1.36-3.03,1.36-3.03h2.06l-1.37,2.97-1.37,2.97,1.64,3,1.64,3Zm6.34,0v-11.94h2.68v2.99s0,2.99,0,2.99v2.98s0,2.98,0,2.98h-2.68Z"/></g></svg>