<?xml version="1.0" encoding="UTF-8"?><svg id="Ebene_2" xmlns="http://www.w3.org/2000/svg" viewBox="0 0 52.25 41.39"><defs><style>.cls-1{stroke-width:0px;}</style></defs><g id="Ebene_1-2"><g id="QGMfSk.tif"><path class="cls-1" d="m25.81,41.39c-3.9-3.09-7.8-6.16-11.68-9.27-4.46-3.58-8.9-7.18-13.35-10.78-.23-.18-.43-.39-.78-.71,1.22-1.02,2.37-2,3.54-2.94C10.48,12.1,17.43,6.52,24.38.93c1.55-1.25,1.79-1.24,3.33,0,7.95,6.42,15.89,12.83,23.85,19.24.14.12.33.18.69.37-1.46,1.19-2.67,2.19-3.89,3.18-7.03,5.66-14.07,11.31-21.1,16.96-.32.25-.66.47-.99.7h-.45Zm.18-40.03C17.94,7.86,10.11,14.18,2.09,20.65c8.04,6.45,15.88,12.75,23.91,19.19V1.35Zm5.43,21.32c-.09.06-.18.12-.27.17.31.51.55,1.08.95,1.51,2.04,2.19,5.77,1.98,7.8-.4,1.8-2.11,1.58-5.34-.49-7.25-2.1-1.93-5.32-1.95-7.24.02-.42.43-.64,1.07-.95,1.61,2.88-.99,4-.92,5.07.46.8,1.04.81,2.49.02,3.53-.99,1.3-2.47,1.4-4.9.34Z"/><path class="cls-1" d="m22.48,19.69c-.02,2.89-2.44,5.14-5.48,5.12-2.81-.02-5.22-2.41-5.21-5.18.01-2.89,2.6-5.44,5.55-5.46,2.79-.02,5.17,2.53,5.14,5.51Z"/></g></g></svg>