<?xml version="1.0" encoding="UTF-8"?><svg id="Ebene_2" xmlns="http://www.w3.org/2000/svg" viewBox="0 0 82.04 42.23"><defs><style>.cls-1{stroke-width:0px;}</style></defs><g id="Ebene_1-2"><g id="_4DmEzJ.tif"><path class="cls-1" d="m58.41,42.01c-1.6,0-3.2-.01-4.81,0-.76,0-1.51.11-2.27.08-1.28-.05-2.56-.24-3.84-.23-2.03.01-4.05.09-6.08.22-2.39.15-4.78.21-7.17.08-1.79-.1-3.59-.27-5.39-.22-1.4.04-2.8.19-4.2.16-1.95-.05-3.9-.06-5.86-.12-2.13-.06-4.12-.64-6.03-1.58-1.78-.88-3.5-1.87-5.1-3.06-.63-.47-1.15-1.08-1.7-1.64-.69-.71-1.39-1.4-2.03-2.15-.97-1.16-1.56-2.53-2.1-3.93-.75-1.95-1.38-3.93-1.68-6-.41-2.82-.11-5.58.69-8.29.49-1.66,1.16-3.26,1.93-4.81.69-1.39,1.73-2.5,2.79-3.6,1.21-1.26,2.43-2.5,3.86-3.52,2.02-1.43,4.27-2.29,6.68-2.8,1.99-.42,3.99-.53,6.02-.52,1.17,0,2.35-.11,3.52-.08,1.5.04,3,.16,4.5.24.46.02.92.06,1.38.02,1.7-.14,3.39-.22,5.09-.13,1.07.06,2.15-.05,3.22-.05,1.78,0,3.55.02,5.33.08.96.03,1.92.24,2.88.23,1.39,0,2.78-.17,4.17-.21,1.85-.05,3.7-.16,5.55,0,.94.09,1.91-.03,2.86-.08,1.81-.09,3.58.17,5.35.52,3.65.71,6.72,2.46,9.29,5.13.88.92,1.78,1.82,2.62,2.78,1.12,1.29,1.77,2.86,2.41,4.43,1.02,2.52,1.66,5.13,1.7,7.86.03,1.77-.22,3.52-.69,5.23-.55,2.01-1.23,3.98-2.19,5.83-.62,1.19-1.46,2.21-2.44,3.12-.61.56-1.09,1.28-1.74,1.79-1.03.81-2.12,1.56-3.24,2.24-1.71,1.04-3.48,1.96-5.42,2.48-1.44.38-2.92.5-4.4.51-1.16.01-2.33,0-3.49,0,0-.01,0-.02,0-.03Zm-.49-.92s0,.02,0,.03c1.46,0,2.92.02,4.38,0,2.28-.03,4.47-.43,6.49-1.55,1.43-.8,2.85-1.64,4.28-2.45.71-.41,1.31-.96,1.86-1.55.45-.48.89-.97,1.37-1.42.87-.82,1.65-1.73,2.12-2.82.66-1.54,1.29-3.09,1.81-4.68.77-2.35,1.05-4.77.81-7.24-.24-2.41-.92-4.7-1.91-6.91-.59-1.31-1.19-2.62-2.19-3.69-.84-.9-1.7-1.78-2.56-2.65-2.18-2.23-4.77-3.75-7.83-4.46-1.95-.45-3.91-.77-5.93-.65-.9.05-1.81.16-2.69.07-1.79-.18-3.58-.09-5.35.06-2.94.25-5.87.13-8.81-.06-1.55-.1-3.11-.09-4.67-.11-.86-.01-1.71.02-2.57.03-.95,0-1.91,0-2.86.02-1.26.02-2.52.11-3.78.09-1.6-.04-3.2-.2-4.79-.24-1.15-.03-2.3.09-3.45.09-1.76,0-3.5.11-5.23.47-2.22.47-4.33,1.2-6.21,2.5-1.46,1.01-2.71,2.26-3.92,3.55-.68.72-1.4,1.42-1.94,2.23-1.36,2.05-2.24,4.33-2.86,6.71-.57,2.2-.75,4.43-.47,6.69.25,2.09.88,4.08,1.63,6.04.61,1.61,1.32,3.16,2.53,4.42.84.88,1.7,1.75,2.56,2.61.22.22.46.42.72.57,1.48.88,2.96,1.76,4.45,2.61,1.8,1.02,3.75,1.59,5.83,1.66,2.12.06,4.23.11,6.35.13,1.38.01,2.75-.06,4.13-.16,1.55-.12,3.13.07,4.7.13,1.24.05,2.48.19,3.71.17,1.53-.02,3.07-.15,4.6-.26,2.4-.16,4.79-.23,7.19.03.8.09,1.62.07,2.43.06.8,0,1.6-.07,2.4-.08,1.22-.01,2.44,0,3.65,0Z"/><path class="cls-1" d="m19.68,21.62c2.07,0,4.15-.04,6.22.02,1.21.03,2.42.22,3.63.33,2.41.22,4.81.23,7.21-.21,3.37-.61,6.76-.98,10.19-1.02,3.96-.05,7.91-.27,11.87-.39,2.93-.09,5.85-.16,8.78-.24.18,0,.35-.01.53-.02.25-.01.4.09.39.36-.01.26-.14.4-.41.4-.6,0-1.21,0-1.81.01-2.31.07-4.62.15-6.94.22-1.51.04-3.03.06-4.54.11-2.2.07-4.4.16-6.61.25-1.62.06-3.25.08-4.86.2-1.41.1-2.81.29-4.21.49-1.33.18-2.65.46-3.99.63-1.58.2-3.17.08-4.76-.03-3.17-.21-6.34-.51-9.52-.43-2.55.07-5.11.04-7.67.05-.07,0-.13,0-.2-.01-.2-.06-.33-.18-.3-.41.03-.2.14-.31.36-.31,1.82,0,3.64,0,5.46,0,.4,0,.79,0,1.19,0,0,0,0,0,0,.01Z"/><path class="cls-1" d="m57.51,30.84c.09.33.13.65.25.93.4.9.99,1.14,1.88.74.37-.16.56-.47.54-.9-.04-.77-.39-1.31-1.11-1.63-.58-.26-1.17-.51-1.67-.89-1.04-.79-1.2-2.19-.45-3.19.48-.63,1.04-.77,1.75-.45.2.09.41.16.6.25.54.26.79.7.76,1.3,0,.17,0,.34.08.56.08-.08.19-.15.25-.24.45-.76.15-1.85-.62-2.26-.17-.09-.37-.14-.56-.15-.4-.03-.56-.13-.54-.41.03-.39.32-.33.56-.32,1.29.05,2.59.1,3.88.15.06,0,.13,0,.24,0,0-.21,0-.42,0-.62,0-.23.14-.34.35-.34.21,0,.36.1.37.33,0,.21,0,.41,0,.59,1.02,0,2.01,0,2.99,0,.38,0,.53.09.51.38-.02.3-.22.35-.46.35-.88.01-1.75.02-2.63.03-.41,0-.44.02-.4.43.18,1.78.37,3.55.55,5.33.03.26.06.52.1.78.04.26-.03.47-.32.5-.29.04-.34-.18-.37-.39-.16-1.29-.34-2.59-.49-3.88-.1-.9-.16-1.81-.24-2.8-.71,0-1.45-.02-2.19,0-.26,0-.23.19-.13.38.4.72.43,1.46.05,2.2-.47.92-1.15.96-1.7.09-.17-.27-.27-.59-.41-.89-.06-.13-.12-.26-.2-.38-.4-.58-.91-.56-1.27.04-.48.82-.19,1.88.66,2.31.35.18.73.31,1.1.41,1.08.27,1.51.97,1.68,2.06.05.34.02.71-.07,1.04-.17.68-.55,1.19-1.27,1.38-.81.21-1.5-.02-2.06-.62-.56-.6-.85-1.35-1.06-2.13-.07-.26,0-.49.28-.58.19-.07.38-.02.4.2.02.28.18.31.38.3Z"/><path class="cls-1" d="m16.48,12.15c.49.67.99,1.33,1.45,2.02.35.51.66,1.05.99,1.59.04.07.11.17.09.24-.05.16-.11.35-.23.45-.16.13-.34.03-.44-.14-.26-.46-.49-.94-.78-1.37-.48-.69-.98-1.37-1.52-2.02-.32-.39-.76-.66-1.34-.74.06.53.11,1.04.17,1.54.08.62.14,1.24.27,1.85.07.33.25.65.42.95.12.2.21.38-.02.54-.21.15-.43.14-.61-.07-.35-.42-.5-.92-.57-1.45-.18-1.26-.34-2.52-.51-3.78-.04-.32.1-.48.42-.47.68.02,1.36.06,2.04.07.66,0,1.32-.05,1.91-.4.33-.2.71-.41.71-.84,0-.44-.39-.64-.74-.8-1.36-.62-2.77-.79-4.23-.44-.27.06-.34.27-.41.5-.31,1.08-.49,2.18-.54,3.3,0,.13-.1.31-.2.36-.09.05-.28-.01-.38-.09-.08-.06-.14-.21-.12-.31.15-1.16.28-2.33.48-3.48.13-.72.65-1.06,1.56-1.15,1.25-.13,2.48,0,3.66.41.43.15.86.4,1.21.7.64.56.62,1.4.03,2.01-.52.54-1.19.76-1.9.89-.31.05-.62.1-.86.14Z"/><path class="cls-1" d="m32.1,24.18c.61.11,1.24.17,1.83.34,1.09.31,1.89,1.01,2.17,2.13.25,1.03.47,2.08.54,3.13.11,1.49-.7,2.6-2.17,3.23-.74.32-1.51.45-2.31.4-.12,0-.31-.12-.34-.22-.03-.12.06-.29.12-.43.06-.14.21-.28.2-.42-.02-1.04-.08-2.08-.12-3.12-.01-.26-.08-.39-.38-.27-.25.1-.43-.02-.52-.26-.39-1.09-.64-2.21-.68-3.37-.03-.71.26-.99.97-1.05.22-.02.44,0,.66,0,0-.03,0-.06.01-.09Zm-.44,2.81s.03-.01.05-.02c-.02-.17-.02-.34-.05-.51-.05-.28.08-.42.33-.47.25-.04.36.13.39.34.1.62.23,1.23.27,1.85.1,1.34.16,2.69.24,4.03.02.32.14.45.43.36.5-.16,1.01-.31,1.46-.56.79-.44,1.19-1.15,1.16-2.06-.03-.98-.15-1.95-.5-2.87-.13-.34-.27-.7-.49-.99-.65-.87-2.48-1.42-3.51-1.06-.13.04-.28.29-.26.42.05.4.17.79.28,1.18.04.13.14.24.21.35Z"/><path class="cls-1" d="m51.58,9.9c.7.14,1.55.24,2.35.48.94.27,1.39,1.25.97,2.06-.15.3-.44.58-.74.75-.73.42-1.57.44-2.39.53-.94.11-1.86-.02-2.76-.27-.07-.02-.16,0-.24,0,0,.08-.01.17.01.24.53,1.47,2.35,2.5,3.89,2.21.39-.08.74-.19.83-.66.03-.15.13-.28.18-.42.13-.37.45-.42.76-.45.29-.03.42.18.32.49-.3.99-1.01,1.55-1.97,1.78-1.9.46-4.59-1.07-4.96-3.17-.27-1.52.69-2.98,2.29-3.37.42-.1.86-.13,1.44-.22Zm-2.91,2.67c.18.06.35.11.51.16,1.19.35,2.41.28,3.62.16.37-.03.78-.19,1.08-.41.68-.49.59-1-.19-1.33-.87-.37-1.79-.53-2.73-.39-1.07.16-1.93.63-2.29,1.79Z"/><path class="cls-1" d="m62.58,12.83c0,.46,0,.91,0,1.37.02.76.02,1.51-.27,2.23-.09.22-.19.42-.47.33-.27-.09-.3-.3-.24-.56.27-1.1.3-2.21.22-3.33-.01-.16.02-.33,0-.49-.02-.19-.08-.37-.1-.56-.02-.16-.04-.32-.03-.48.03-.43-.11-.88.22-1.26.04-.05.01-.15.02-.23.04-.55.07-1.09.12-1.64.04-.43.22-.62.65-.64.99-.05,1.99-.09,2.99-.08.7,0,1.15.41,1.33,1.07.14.52-.17,1.33-.75,1.63-.47.24-1.01.41-1.54.5-.67.12-1.37.13-2.08.19-.1.32-.11.65.22.96.37.35.74.72,1.04,1.14.69.97,1.57,1.73,2.5,2.45.31.24.55.56.8.86.15.19.17.42-.07.57-.24.15-.4.06-.58-.15-.36-.41-.76-.78-1.17-1.15-.44-.4-.93-.74-1.35-1.16-.38-.37-.69-.81-1.03-1.22-.11-.13-.22-.26-.34-.39-.03.01-.06.02-.1.03Zm.24-4.57c-.05.57-.09,1.05-.14,1.53-.03.21.05.28.25.27.69-.04,1.38-.08,2.06-.13.44-.03.78-.26,1.06-.59.2-.22.35-.46.21-.77-.13-.29-.41-.3-.67-.3-.91,0-1.81,0-2.77,0Z"/><path class="cls-1" d="m26.37,29.61c-.05.87-.1,1.75-.14,2.62,0,.1.03.22.09.3.28.35.55.71.86,1.03.19.2.28.37.07.59-.18.19-.41.18-.62-.06-.22-.25-.42-.54-.64-.79-.07-.08-.2-.17-.28-.15-1.14.23-1.93-.31-2.56-1.16-.59-.78-.87-1.71-1.15-2.64-.42-1.38-.57-2.81-.58-4.25,0-.27.07-.46.38-.45.3,0,.34.21.35.45.02,1.81.27,3.58.95,5.27.31.77.76,1.43,1.48,1.88.06.04.13.11.19.12.17.03.35.03.52.04-.03-.15-.03-.31-.08-.45-.51-1.4-.63-2.8-.09-4.23.15-.39.12-.86.12-1.29,0-.46-.06-.92-.08-1.38,0-.24.03-.47.36-.47.31,0,.43.15.45.43.11,1.28.22,2.55.32,3.83.02.25,0,.5,0,.76.02,0,.04,0,.07,0Z"/><path class="cls-1" d="m23.87,14.6c.02-.93.46-1.67,1.08-2.33.3-.32.31-.31,0-.61-.38-.38-.47-1.16-.19-1.76.27-.58.76-.93,1.31-1.19,1.08-.5,2.24-.68,3.42-.71.29,0,.39.16.39.41,0,.28-.13.39-.41.38-1.04-.05-2.03.13-2.97.59-.32.16-.63.36-.9.6-.36.32-.43.72-.24,1.06.16.29.69.48,1.08.38,1.34-.35,2.54-.06,3.62.77.17.13.32.26.24.52-.07.26-.29.25-.47.26-.78.06-1.52-.12-2.26-.34-.24-.07-.49-.14-.72-.23-.35-.14-.65-.09-.96.11-.49.33-.92.71-1.17,1.26-.27.6-.3,1.2.14,1.74.45.55,1.08.66,1.7.46.52-.17.99-.5,1.47-.78.16-.09.3-.27.48-.06.16.19.16.41.01.61-.55.71-2.22,1.23-3.1.96-.96-.29-1.56-1.1-1.57-2.11Z"/><path class="cls-1" d="m16.07,27.76c.34.38.71.8,1.09,1.21.77.84,1.23,1.81,1.15,2.97-.05.78-.44,1.24-1.22,1.38-2.04.37-3.7-.95-3.79-2.95,0-.1.01-.23.07-.31.04-.07.19-.14.24-.11.11.06.24.16.28.27.09.24.11.51.2.76.39,1.13,1.33,1.76,2.52,1.71.65-.03.95-.31.99-.94.06-.86-.27-1.59-.82-2.22-.05-.06-.23-.06-.32-.02-.18.07-.29.07-.47-.05-.84-.56-1.37-1.38-1.93-2.18-.32-.44-.48-.96-.46-1.51.03-.79.46-1.22,1.24-1.22.66,0,1.31.07,1.91.39.86.47,1.26,1.22,1.09,2.08-.1.52-.43.8-.97.79-.3,0-.61-.03-.81-.04Zm-.86-2.52c-.32.02-.71-.02-.89.37-.17.38-.02.75.2,1.08.18.26.4.44.74.29.07-.03.15-.01.23,0,.42.04.84.09,1.27.13.22.02.42-.05.4-.31-.02-.42-.16-.79-.5-1.07-.41-.34-.89-.5-1.45-.49Z"/><path class="cls-1" d="m44.92,25.99c-.07-.01-.17-.02-.26-.05-.39-.12-.47-.38-.16-.63.32-.27.67-.53,1.04-.73.41-.23.87-.18,1.31-.03.14.05.29.09.43.12.29.04.42.19.41.48,0,.07-.03.18.01.22.41.37.52.89.73,1.37.47,1.1,1.04,2.16,1.16,3.37.04.39,0,.82-.09,1.2-.25,1-.9,1.51-1.94,1.47-1.46-.06-2.68-.63-3.52-1.86-.95-1.39-.76-3.2.42-4.41.15-.16.29-.33.45-.5Zm3.96,4.37c-.04-1.72-.84-3.12-1.75-4.47-.11-.16-.29-.2-.46-.08-.54.36-1.12.66-1.59,1.09-1.17,1.08-1.26,2.69-.26,3.87.75.88,1.75,1.25,2.87,1.33.3.02.55-.1.77-.31.42-.4.41-.92.43-1.42Z"/><path class="cls-1" d="m34.74,16.8c-.24,0-.44-.2-.34-.45.24-.58.03-1.08-.17-1.61-.71-1.94-1.13-3.96-1.39-6.01-.03-.2-.09-.44.23-.48.29-.03.45.12.51.4.15.83.27,1.67.46,2.49.21.92.48,1.82.74,2.73.03.1.13.18.19.26.06-.09.14-.18.18-.28.69-1.99,1.57-3.9,2.54-5.77.12-.23.27-.36.52-.21.24.14.25.32.12.56-1.38,2.5-2.35,5.16-3.1,7.9-.07.25-.16.46-.49.47Z"/><path class="cls-1" d="m41.12,13.46c0,.94,0,1.88,0,2.82,0,.27-.07.49-.39.49-.33,0-.37-.22-.38-.49-.06-1.96-.09-3.92-.2-5.88-.04-.68-.26-1.35-.43-2.01-.05-.22-.15-.4.12-.52.26-.12.57-.02.65.25.13.44.28.89.32,1.34.1,1.21.15,2.42.22,3.64,0,.12,0,.24,0,.36.03,0,.06,0,.09,0Z"/><path class="cls-1" d="m25.02,24.45s-.12.2-.25.25c-.17.07-.35,0-.41-.21-.1-.37-.2-.73-.27-1.1-.05-.27.12-.43.36-.44.24-.01.36.15.38.4.04.33.11.66.18,1.1Z"/><path class="cls-1" d="m23.72,24.24c-.02.25.04.52-.31.54-.27.02-.39-.14-.43-.5-.02-.21-.06-.41-.09-.61-.04-.28.09-.5.32-.51.27-.02.39.15.41.4.02.24.06.47.08.68Z"/></g></g></svg>