<?xml version="1.0" encoding="UTF-8"?><svg id="Ebene_2" xmlns="http://www.w3.org/2000/svg" viewBox="0 0 158.18 11.75"><defs><style>.cls-1{stroke-width:0px;}</style></defs><g id="Ebene_1-2"><path class="cls-1" d="m45.62,11.48c.36-.94.69-1.84,1.04-2.75.68-1.78,1.36-3.56,2.04-5.34.09-.23.15-.46.27-.67.08-.12.24-.21.38-.27.1-.04.23,0,.34,0,10.21,0,20.42,0,30.62,0,.46,0,.68.12.84.57,1.03,2.78,2.1,5.55,3.16,8.33.02.04.01.09.03.2-.47,0-.93.03-1.38-.02-.12-.01-.27-.21-.33-.35-.21-.51-.38-1.03-.59-1.54-.05-.12-.23-.21-.37-.27-.1-.04-.23,0-.34,0-10.9,0-21.79,0-32.69,0-.51,0-.85.08-.92.64-.02.17-.13.33-.2.5-.44,1.18-.51,1.22-1.91,1Zm35.87-3.4c-.05-.18-.08-.3-.12-.42-.37-1.03-.78-2.05-1.11-3.1-.15-.5-.38-.64-.89-.64-9.57.02-19.14.01-28.72.01-.11,0-.23,0-.34,0-.27-.03-.41.07-.5.34-.24.7-.51,1.39-.77,2.09-.2.55-.39,1.11-.6,1.72h33.05Z"/><path class="cls-1" d="m17.73,11.55V2.45c.43,0,.84-.02,1.24.01.13.01.27.16.36.28,1.54,2.04,3.07,4.08,4.6,6.12.02.02.05.04.14.1V2.45c.45,0,.84,0,1.23,0,.33,0,.3.24.3.44,0,.94,0,1.88,0,2.82,0,1.73-.01,3.47,0,5.2,0,.47-.11.65-.63.65-.56,0-.95-.12-1.31-.62-1.3-1.8-2.66-3.55-4-5.32-.12-.16-.26-.32-.38-.47-.04.01-.08.03-.12.04,0,.17,0,.34,0,.5.02,1.78.04,3.57.08,5.35,0,.39-.11.53-.5.5-.33-.02-.65,0-1.03,0Z"/><path class="cls-1" d="m134.19,11.54c-.53,0-.94.04-1.34-.02-.14-.02-.29-.3-.35-.49-.21-.68-.37-1.37-.58-2.05-.21-.67-.7-.99-1.4-.99-.57,0-1.15.01-1.72-.01-.35-.02-.46.11-.46.44.01.88,0,1.75,0,2.63,0,.36-.09.55-.5.51-.32-.03-.65,0-1.01,0V2.48c.14-.01.27-.04.39-.04,1.3,0,2.59-.03,3.89.02.96.04,1.83.34,2.41,1.17.8,1.15.45,3.1-.96,3.54-.07.02-.13.08-.19.13,1.42,1.07,1.28,2.73,1.81,4.23Zm-4.3-7.92s0,.05-.01.08c-.38,0-.75.01-1.13,0-.26-.01-.4.08-.4.35,0,.78,0,1.55,0,2.33,0,.28.15.35.4.34.56-.01,1.11.02,1.67-.01.38-.02.79-.07,1.14-.21.59-.24.82-.76.82-1.37,0-.59-.23-1.07-.82-1.23-.54-.15-1.11-.19-1.67-.27Z"/><path class="cls-1" d="m36.29,11.55V2.49h1.51c0,.4,0,.8,0,1.2,0,.73-.01,1.46.01,2.19,0,.14.18.39.27.39,1.46.03,2.91.02,4.43.02v-3.8h1.51v9.03h-1.5c0-.17,0-.34,0-.51,0-.99,0-1.98,0-2.97,0-.3-.08-.44-.41-.44-1.3.01-2.59.01-3.89,0-.37,0-.44.18-.44.48,0,.99-.01,1.98,0,2.97.01.41-.14.55-.54.51-.31-.03-.62,0-.98,0Z"/><path class="cls-1" d="m96.66,8.86c.26,1.18.84,1.66,2.01,1.68.76.02,1.52.02,2.09-.6.62-.67.43-1.65-.43-1.92-.84-.26-1.71-.4-2.57-.6-.75-.18-1.5-.4-1.99-1.05-.66-.88-.5-2.28.33-3.11,1.32-1.32,4.46-1.28,5.72.08.38.41.61,1.05.58,1.66-.24,0-.48,0-.72,0s-.46,0-.64,0c-.19-.36-.3-.75-.55-1-.77-.76-2.46-.73-3.26.02-.6.56-.43,1.51.38,1.82.56.21,1.18.27,1.76.43.76.22,1.54.41,2.26.72,1.45.63,1.36,3.05.14,3.92-.67.48-1.41.73-2.22.8-1.08.09-2.13.02-3.09-.52-.77-.43-1.14-1.12-1.26-1.96-.03-.25.06-.37.32-.36.38,0,.75,0,1.15,0Z"/><path class="cls-1" d="m150.52,2.47h1.5c0,.5,0,.98,0,1.46,0,.66-.01,1.33.01,1.99,0,.12.17.34.27.34,1.44.01,2.88,0,4.33-.02.01,0,.02-.02.09-.08v-3.67h1.46v9.01h-1.46c0-.26,0-.51,0-.76,0-.91,0-1.82,0-2.72,0-.27-.06-.42-.38-.42-1.31.01-2.63.01-3.94,0-.36,0-.39.18-.39.46,0,1.02,0,2.04,0,3.06,0,.3-.07.45-.41.43-.35-.02-.71,0-1.09,0V2.47Z"/><path class="cls-1" d="m122.87,2.51c.1-.04.13-.06.16-.06,1.7,0,1.38-.26,1.38,1.26,0,1.68,0,3.37-.1,5.05-.11,1.79-1.33,2.7-2.94,2.91-1,.14-2,.08-2.94-.34-1.12-.51-1.71-1.47-1.77-2.61-.1-2.07-.03-4.14-.03-6.25h1.48c.01.18.03.37.03.55,0,1.62,0,3.24,0,4.86,0,.83.17,1.6.91,2.13,1.35.96,3.4.2,3.7-1.39.06-.3.08-.61.09-.92,0-1.56,0-3.11,0-4.67,0-.19,0-.38,0-.54Z"/><path class="cls-1" d="m85.51,2.47h1.46c0,.19.02.37.02.54,0,1.67-.02,3.34.01,5.01.01.76.17,1.5.87,1.96.83.55,1.75.53,2.63.2.75-.29,1.13-.95,1.16-1.72.05-1.78.04-3.57.05-5.35,0-.21.02-.41.03-.64h1.48c.01.15.03.27.03.4,0,1.74,0,3.47,0,5.21,0,.89-.2,1.73-.77,2.45-.48.61-1.13.93-1.86,1.08-1.52.32-3.45.14-4.43-1.11-.56-.71-.73-1.56-.74-2.42-.03-1.77-.02-3.54-.01-5.3,0-.09.04-.19.06-.3Z"/><path class="cls-1" d="m148.4,5.42h-1.46c-.27-.59-.53-1.19-1.17-1.49-1.46-.69-3.08-.22-3.91,1.15-.76,1.25-.59,3.27.37,4.37,1.06,1.21,3.25,1.29,4.18.14.03-.04.07-.07.09-.11.17-.29.28-.74.52-.82.41-.14.9-.04,1.42-.04-.14.95-.58,1.69-1.31,2.24-2.25,1.71-6.24.94-7.08-2.21-.55-2.05-.28-3.89,1.39-5.35,1.21-1.05,2.68-1.16,4.17-.85,1.45.3,2.36,1.23,2.78,2.62.02.08.03.16.04.24,0,.03-.02.06-.04.11Z"/><path class="cls-1" d="m16.1,11.54c-.49,0-.94.02-1.39-.02-.11,0-.24-.19-.29-.32-.2-.51-.36-1.04-.58-1.54-.06-.13-.26-.29-.4-.29-1.12-.02-2.23-.03-3.35,0-.16,0-.38.17-.44.32-.2.44-.35.9-.49,1.36-.11.36-.3.54-.7.5-.32-.03-.65,0-1.05,0,.47-1.23.9-2.38,1.33-3.52.66-1.73,1.33-3.46,1.98-5.2.1-.26.21-.43.51-.38.08.01.16,0,.25,0,1.21,0,1.22,0,1.64,1.1.98,2.55,1.94,5.1,2.91,7.65.03.09.04.18.08.34Zm-5.87-3.46h3.05c-.49-1.37-.97-2.7-1.45-4.02-.05,0-.09,0-.14,0-.48,1.32-.96,2.64-1.46,4.02Z"/><path class="cls-1" d="m112.97,3.7h-4.87v-1.21h6.9c.17.57-.03,1.01-.38,1.46-1.51,1.98-2.99,3.98-4.48,5.98-.06.09-.11.19-.21.34.23.01.41.03.58.03,1.33,0,2.66.02,3.99,0,.57-.01.52.3.54.68.02.4-.06.58-.53.58-2-.02-4-.01-6.01-.01-.67,0-.9-.38-.54-.99.25-.43.58-.82.88-1.22,1.36-1.81,2.72-3.63,4.08-5.44.02-.02.02-.06.05-.19Z"/><path class="cls-1" d="m29.37,10.31c1.45,0,2.81,0,4.17,0,.96,0,.85-.13.86.86,0,.1-.01.19-.02.33h-7.05c-.09-.44-.08-.84.23-1.25,1.6-2.09,3.17-4.21,4.75-6.32.03-.04.04-.08.09-.2-.2-.01-.37-.03-.54-.03-1.26,0-2.53-.02-3.79,0-.43,0-.61-.1-.55-.54.03-.22,0-.44,0-.73.23,0,.41,0,.58,0,1.87,0,3.74,0,5.61,0,.24,0,.69.09.69.14,0,.35,0,.75-.17,1.05-.25.46-.62.86-.94,1.29-1.26,1.68-2.52,3.36-3.78,5.04-.05.07-.08.17-.15.34Z"/><path class="cls-1" d="m3.15,11.55V3.72H0v-1.23h7.93v1.21h-3.16c-.01.23-.03.42-.03.61,0,2.24-.01,4.48,0,6.71,0,.44-.14.58-.56.54-.32-.03-.65,0-1.02,0Z"/><path class="cls-1" d="m137.7,2.45v9.09c-.44,0-.88.03-1.31-.02-.09,0-.2-.29-.2-.45-.01-1.73,0-3.47,0-5.2,0-.99.01-1.98,0-2.97,0-.33.09-.48.44-.45.34.03.68,0,1.08,0Z"/><path class="cls-1" d="m118.4,0c.3,0,.52,0,.75,0,.69,0,.7,0,.68.7,0,.22-.07.61-.16.63-.38.07-.77.03-1.16.01-.04,0-.09-.16-.1-.25-.01-.34,0-.68,0-1.1Z"/><path class="cls-1" d="m122.65.74q0,.66-.72.66t-.68-.75T122.02,0t.63.74Z"/></g></svg>