<?xml version="1.0" encoding="UTF-8"?><svg id="Ebene_2" xmlns="http://www.w3.org/2000/svg" viewBox="0 0 134.6 16.99"><defs><style>.cls-1{fill:#030303;}.cls-1,.cls-2{stroke-width:0px;}.cls-2{fill:#040404;}</style></defs><g id="Ebene_1-2"><g id="KZmyHn.tif"><path class="cls-1" d="m54.45.6c.7.06,1.42.06,2.1.21.6.13,1.31.23,1.53,1,.01.05.09.07.12.12.42.53,1.49.68,1.31,1.48-.24,1.08-.62,2.17-1.3,3.1-.59.81-1.17,1.62-2.07,2.13-.56.32-.71.78-.24,1.28,1.08,1.16,1.5,2.83,2.89,3.77.39.26.4.7.12,1.18-1.21,2.04-3.65,1.56-5.03,0-.78-.88-1.16-1.97-1.71-2.96-.1-.18-.15-.43-.41-.4-.25.03-.3.25-.3.47,0,1.07-.37,1.94-1.34,2.49-.78.44-1.16,1.3-1.87,1.82-.62.46-1.34.22-1.42-.58-.07-.67-.07-1.36.03-2.02.36-2.23.69-4.48,1.31-6.66.08-.27.07-.53.03-.78-.31-1.84.5-3.24,1.71-4.48.37-.38.8-.71,1.41-.54.12.03.29-.04.41-.11.84-.51,1.76-.64,2.72-.53Zm1.39,4.03c-.33-.39-.64-.05-.94-.07-.32-.02-.64,0-.97.01-.73.01-1.34.88-1.08,1.55.02.06.13.16.16.15.36-.14.88.11,1.08-.42.18-.5.55-.73,1.06-.8.27-.03.51-.16.68-.43Z"/><path class="cls-1" d="m37.05.6c.67.06,1.36.06,2.02.2.64.14,1.38.21,1.6,1.03.01.05.1.07.13.12.4.51,1.44.64,1.28,1.41-.23,1.11-.6,2.23-1.3,3.18-.59.8-1.17,1.61-2.08,2.12-.5.29-.71.74-.25,1.23,1.11,1.18,1.51,2.89,2.95,3.84.34.22.39.63.12,1.1-1.19,2.1-3.69,1.64-5.08.05-.75-.86-1.15-1.9-1.67-2.89-.1-.19-.17-.51-.47-.44-.29.07-.21.36-.25.59-.13.88-.33,1.67-1.18,2.24-.76.51-1.38,1.22-2.01,1.9-.28.31-.5.41-.89.24-.42-.18-.55-.5-.59-.91-.13-1.24.1-2.46.31-3.67.29-1.68.58-3.37,1.08-5,.08-.25.03-.47,0-.69-.29-1.77.45-3.14,1.62-4.35.42-.43.86-.81,1.54-.65.12.03.29-.05.41-.12.84-.51,1.76-.62,2.72-.51Zm1.45,3.83c-.96.09-1.76.15-2.55.25-.23.03-.66,1.25-.54,1.47.03.06.16.14.2.12.35-.14.87.11,1.06-.44.17-.5.56-.72,1.08-.78.28-.03.5-.17.75-.62Z"/><path class="cls-1" d="m123.71,15.57c.02-2,.8-3.62,1.26-5.32.44-1.61.96-3.2,1.08-4.9.06-.84.6-1.6,1.08-2.28.48-.69,1.12-1.28,1.63-1.97.78-1.07,1.95-1.08,3.05-.82.9.21,1.23,1.05,1.47,1.94.52,1.96.66,3.97.92,5.97.04.31.25.54.25.83,0,.62.31,1.22-.2,1.88-.3.38.03,1.07.11,1.61.05.37.16.74.22,1.11.09.5.02.92-.57,1.08-.32.09-.59.29-.79.56-.38.51-.96.87-1.51.74-.71-.18-1.09-.85-1.27-1.59-.17-.71-.15-1.44-.35-2.14-.1-.33-.19-.43-.51-.35-.83.21-1.64.48-1.72,1.5-.09,1.19-1.3,1.73-1.57,2.82-.03.11-.29.18-.45.22-.23.06-.47.09-.7.1-.36.02-.54.73-1.02.28-.44-.4-.29-.97-.39-1.27Zm6.29-6.82c-.27-.35.21-1.11-.32-1.11-.61,0-.47.82-.67,1.27-.12.26.24.27.42.29.31.02.59-.04.57-.45Z"/><path class="cls-1" d="m62.24,14.98c0-1.44.76-2.98,1.2-4.59.45-1.67.97-3.32,1.15-5.07.08-.74.51-1.51.95-2.15.62-.89,1.36-1.71,2.14-2.47,1.24-1.2,3.54-.53,4.01,1.11.6,2.09.75,4.25,1.03,6.39.04.33.21.59.25.91.08.64.02,1.18-.22,1.82-.28.74.12,1.6.26,2.4.13.73.04,1.23-.75,1.48-.31.1-.48.44-.73.63-1.05.81-1.61.83-2.33-.38-.37-.62-.34-1.35-.5-2.03-.1-.42.04-1.07-.47-1.1-.7-.04-1.59.24-1.72.98-.21,1.28-1.2,2.07-1.67,3.16-.12.28-.34.31-.55.38-.22.07-.46.08-.7.1-.36.03-.53.73-1.03.26-.26-.25-.42-.81-.36-1.84Zm6.13-6.58c-.12-.11.27-.78-.16-.76-.62.03-.53.8-.68,1.25-.11.33.28.31.48.31.38,0,.62-.17.37-.8Z"/><path class="cls-1" d="m18.13,16.96c-.52-.25-1.24-.33-1.97-.43-.84-.11-1.4-1.51-1.2-2.66.4-2.25.74-4.53,1.64-6.66.36-.85.3-1.75.4-2.63.18-1.45.67-2.71,1.71-3.74.46-.45.97-.78,1.65-.43.05.03.13.09.16.07,1.09-.67,2.13.44,3.23.07.85-.29,1.17.54,1.56,1.03.39.49-.23.79-.48,1.1-.4.49-.96.83-1.61.82-.64,0-1.18.3-1.77.42-.81.17-.28.96-.39,1.45-.09.37.39.16.65.13.99-.12,1.96-.54,2.98-.01.83.43,1.03,1.07.36,1.69-.45.41-.96.78-1.63.85-.34.03-.72.04-1.02.19-1.98.98-1.85.51-1.86,2.74,0,.41-.09.82-.15,1.23-.09.53-.03.82.62.57.82-.32,1.67-.37,2.45.13.39.25.91.45.79,1.04-.1.55-.44,1-.99,1.16-1.16.33-2.29.73-3.28,1.44-.51.37-1.11.32-1.87.41Z"/><path class="cls-1" d="m1.85,14.16c.24-3.17.33-6.13,1.32-8.94.28-.78,0-.93-.68-.73-.14.04-.28.15-.41.14-.71-.02-1.56.37-1.96-.62-.31-.75.09-1.94.76-2.44C2.15.62,3.67.43,5.18.27c1.03-.11,2.06-.42,3.12-.19,1.01.21,2.06.3,3.01.67,1.07.41,1.02,1.22.09,1.9-1.08.79-2.23,1.26-3.57,1.31-.65.03-.81.35-.81,1.04,0,1.9.01,3.8-.15,5.7-.06.72-.1,1.48.05,2.18.15.7-.07,1.2-.53,1.57-.78.63-1.29,1.44-1.81,2.27-.05.07-.05.2-.11.23-.09.04-.3.05-.32.02-.39-.88-1.57.51-1.89-.69-.21-.78-.35-1.55-.42-2.11Z"/><path class="cls-2" d="m115.6,5.54c-1.52.32-2.8.37-4.07-.07-.61-.21-1.09-.55-1.08-1.21.01-.7-.07-1.46.75-1.93.81-.46,1.6-.65,2.53-.55.84.09,1.69-.01,2.54-.04,1.51-.06,2.38,1.03,3.31,1.92.51.49.11,1.23-.16,1.71-.61,1.1-1.13,2.27-1.87,3.3-.28.39-.57.72-.97,1-1.05.73-1.58,1.87-2.29,2.87-.19.26-.04.41.48.41,1.14,0,2.28-.05,3.4.33.53.18.93.43,1.02.98.1.6-.43.73-.82,1-.89.62-2.02.68-2.89,1.14-1.26.68-2.52.35-3.76.54-.94.15-1.84-.29-2.55-.86-.68-.55-.29-1.28.12-1.8,1.35-1.74,2.62-3.53,4.14-5.14.92-.97,1.59-2.16,2.18-3.59Z"/><path class="cls-2" d="m100.32,5.58c-1.43.21-2.71.36-3.99-.1-.64-.23-1.17-.52-1.16-1.23,0-.74-.05-1.51.84-1.98.77-.41,1.5-.62,2.36-.49.91.14,1.82-.07,2.72-.06,1.45.01,2.31,1.06,3.22,1.94.48.46.13,1.18-.13,1.65-.68,1.24-1.3,2.51-2.11,3.68-.2.29-.47.44-.72.62-1.03.75-1.62,1.85-2.29,2.88-.31.48.17.44.41.44,1.15.01,2.28-.03,3.4.34.57.19.99.48,1.05,1.05.05.52-.45.67-.83.92-.9.6-2.01.69-2.9,1.15-1.29.66-2.58.39-3.86.55-.91.11-1.79-.3-2.46-.87-.64-.54-.3-1.27.13-1.82,1.36-1.73,2.62-3.53,4.14-5.13.92-.97,1.59-2.16,2.16-3.53Z"/><path class="cls-2" d="m85.23,12.93c.71-.13,1.56.16,2.4.39.51.13.82.48.88,1,.06.51-.38.66-.73.89-.93.59-2.03.75-2.97,1.19-1.27.59-2.52.33-3.76.57-.83.16-1.52-.32-2.2-.63-.89-.41-.95-1.19-.28-2.05,1.36-1.73,2.59-3.56,4.15-5.13.79-.8,1.27-1.84,1.84-2.8.12-.19.31-.43.18-.66-.17-.28-.43-.01-.63.02-1.13.15-2.24.12-3.33-.25-.61-.21-1.06-.6-1.03-1.26.03-.68-.05-1.4.73-1.86.83-.48,1.65-.72,2.61-.55.87.16,1.75-.09,2.63-.07,1.44.04,2.31,1.08,3.2,1.98.46.46.08,1.19-.17,1.64-.61,1.07-1.08,2.22-1.84,3.22-.3.4-.56.8-1,1.09-1.07.7-1.58,1.87-2.3,2.86-.28.38.07.4.27.41.38.03.76,0,1.33,0Z"/></g></g></svg>