<?xml version="1.0" encoding="UTF-8"?><svg id="Ebene_2" xmlns="http://www.w3.org/2000/svg" viewBox="0 0 35.8 51.75"><defs><style>.cls-1{stroke-width:0px;}</style></defs><g id="Ebene_1-2"><g id="_7DmuV1.tif"><path class="cls-1" d="m0,8.03C5.67,5.82,11.35,3.61,17.02,1.39c1.06-.42,2.14-.81,3.19-1.27.56-.24.95-.13,1.34.33,1.09,1.31,2.17,2.63,3.33,3.89,1.59,1.73,3.25,3.41,4.88,5.11,1.35,1.41,2.71,2.81,4.07,4.21.2.21.37.49.62.61.91.44.98,1.22.97,2.09-.01,1.26.05,2.52.05,3.77,0,.2-.13.42-.25.6-1.93,2.84-3.86,5.68-5.81,8.5-.34.49-.33.87.13,1.28.49.43.94.9,1.37,1.39,1.56,1.73,3.12,3.47,4.65,5.23.17.19.23.53.23.81.01,1.68,0,3.37-.03,5.05,0,.17-.24.43-.42.5-1.33.53-2.68,1-4.01,1.53-2.49,1-4.96,2.08-7.47,3.03-2.22.84-4.49,1.54-6.72,2.34-1.1.4-2.17.89-3.26,1.35h-.4c-.29-.39-.55-.81-.87-1.18-1.67-1.97-3.36-3.92-5.02-5.9-1.43-1.7-2.82-3.43-4.23-5.14-.87-1.05-1.75-2.1-2.59-3.17-.18-.23-.29-.58-.29-.87-.04-2.02-.03-4.04-.07-6.06-.01-.63.19-.93.84-1.04.92-.15,1.01-.32.98-1.26,0-.24,0-.48,0-.7,1.21-.22,1.47-.47,1.4-1.3-.08-1.03-.09-1.06.91-1.37.44-.14.66-.33.55-.81-.04-.17-.02-.36-.05-.54-.08-.55.1-.91.68-1.03.27-.06.52-.18.78-.27-.04-.13-.04-.18-.06-.21-1.97-2.36-3.96-4.7-5.91-7.08-.22-.26-.31-.67-.36-1.02C.06,12.16.05,11.51,0,10.87,0,9.92,0,8.98,0,8.03Zm.64.23c.13.18.21.33.33.47,1.67,1.97,3.33,3.95,5.02,5.9,2.29,2.62,4.61,5.21,6.9,7.83.36.41.64.7,1.22.33.37-.23.83-.31,1.26-.46,3.42-1.21,6.85-2.4,10.25-3.65,1.62-.59,3.19-1.31,4.79-1.94,1.35-.53,2.71-1.03,4.16-1.58-.34-.38-.61-.71-.9-1-4.18-4.27-8.37-8.53-12.53-12.81-.34-.35-.67-.42-1.08-.28-.87.29-1.75.56-2.61.88-4.62,1.72-9.23,3.44-13.85,5.17-.98.37-1.94.75-2.97,1.15Zm13.6,42.65c2.1-.78,4.04-1.47,5.96-2.2,2.43-.93,4.83-1.92,7.26-2.84,2.39-.91,4.79-1.77,7.18-2.68.23-.09.53-.37.54-.57.05-1.5.02-2.99.02-4.57-.27.07-.44.1-.6.16-3.02,1.18-6.05,2.37-9.07,3.55-1.84.72-3.67,1.44-5.52,2.13-.2.08-.46,0-.69-.02.06-.23.07-.48.18-.68.15-.3.38-.56.56-.84,2.03-3.04,4.04-6.09,6.09-9.12,2.67-3.94,5.34-7.88,8.06-11.78.59-.84.84-1.66.75-2.68-.09-1.01-.02-2.04-.02-3.18-1.06.36-1.98.63-2.87.98-3.15,1.24-6.27,2.55-9.44,3.73-2.58.97-5.21,1.79-7.82,2.68-.95.32-1.17.66-1.12,1.64.04.79.08,1.57.12,2.36.02.3.03.59.05.98,5.03-1.89,9.92-3.72,14.96-5.61.08.62.15,1.1.21,1.57.08.58-.17.87-.76.96-.96.14-.99.17-.9,1.15.04.46-.1.67-.54.72-.18.02-.34.12-.52.14-.51.07-.67.36-.58.84.04.18.02.36.08.53.19.6-.08.89-.64,1.01-.2.04-.39.11-.59.14-.34.06-.51.23-.47.6.03.24-.03.5.02.74.14.64-.2.96-.74,1.04-.71.1-.8.5-.78,1.12.04,1.17.18,1.03-.97,1.24-.57.11-.79.33-.68.9.03.15.01.31.03.47.06.49-.05.76-.64.85-1.31.2-1.36.29-1.24,1.58.06.68-.08,1.16-.85,1.23-.76.07-1.04.5-.83,1.19.23.77-.06,1.13-.78,1.28-.09.02-.16.08-.25.1-.49.13-.66.42-.61.94.09.98.07,1.01-.96,1.21-.65.13-.89.43-.82,1.11.12,1.09.16,2.19.21,3.29.03.8,0,1.61,0,2.6ZM1.13,29.45c-.06.05-.12.1-.18.15-.03.08-.08.16-.08.24-.02,1.68-.04,3.37-.04,5.05,0,.62.2,1.17.66,1.63.46.46.87.97,1.28,1.48,1.82,2.25,3.6,4.53,5.47,6.75,1.54,1.84,3.18,3.6,4.77,5.39.09.11.22.18.38.32.03-.16.07-.24.07-.32.02-1.82.06-3.64.03-5.46,0-.41-.15-.91-.41-1.22-2.03-2.48-4.09-4.94-6.18-7.36-1.76-2.04-3.59-4.02-5.38-6.03-.16-.18-.26-.41-.39-.61Zm18.98,13.49s.1.09.14.13c4.94-1.86,9.89-3.71,14.96-5.62-2.19-2.46-4.29-4.8-6.41-7.18-2.94,4.29-5.82,8.48-8.7,12.67ZM.57,9.03c-.07.03-.14.06-.21.08.09,1.28.18,2.57.29,3.85.01.14.12.29.21.41,1.47,1.83,2.89,3.71,4.43,5.49,2.31,2.66,4.7,5.25,7.06,7.86.24.27.52.5.85.82,0-1.38,0-2.61-.01-3.84,0-.16-.11-.34-.22-.47-.76-.91-1.52-1.83-2.31-2.72-2.94-3.33-5.89-6.65-8.83-9.97-.44-.49-.85-1.01-1.27-1.51Zm5.14,12.93c.6.66,1.14,1.28,1.7,1.89,2.14,2.29,4.3,4.56,6.43,6.87,1.57,1.7,3.09,3.43,4.65,5.14.52.57.97.55,1.63,0-.09-.12-.18-.25-.28-.36-2.17-2.3-4.35-4.58-6.5-6.9-1.95-2.11-3.86-4.25-5.78-6.39-.72-.8-.71-.81-1.87-.24Zm12.69,16.11c.1-.05.21-.1.31-.15-.21-.66-.25-1.47-.67-1.95-2.3-2.63-4.7-5.19-7.07-7.76-1.69-1.83-3.39-3.65-5.09-5.47-.08-.09-.19-.15-.31-.24-.19.8,0,1.4.53,1.96.88.93,1.71,1.9,2.57,2.85,2.58,2.87,5.16,5.74,7.75,8.6.65.73,1.32,1.44,1.98,2.16Zm-.14.51c-.26-.32-.49-.64-.75-.93-2.37-2.64-4.73-5.28-7.12-7.9-1.58-1.74-3.23-3.42-4.79-5.18-.51-.57-.84-.32-1.32,0,.17.2.3.38.45.55.93,1,1.88,1.98,2.79,3,3.03,3.4,6.06,6.8,9.08,10.21.63.71.74.74,1.66.27ZM1.19,28.91c.09.13.14.22.21.31,1.22,1.4,2.45,2.8,3.67,4.2,2.79,3.2,5.58,6.39,8.34,9.61.44.51.85.56,1.46.26-.48-.65-.91-1.3-1.42-1.88-1.57-1.78-3.18-3.53-4.76-5.3-2.06-2.31-4.1-4.63-6.14-6.96-.38-.43-.77-.59-1.36-.24Zm1.81-2.05c.53.59,1.05,1.14,1.54,1.71,3.5,4.01,6.98,8.02,10.49,12.02.24.27.57.5.9.66.14.07.47-.05.57-.19.08-.11,0-.43-.13-.56-1.78-2.02-3.57-4.02-5.37-6.02-2.29-2.55-4.6-5.1-6.87-7.66-.36-.41-.65-.39-1.13.05Zm12.18,15.91c.25-.82.15-1.26-.37-1.84-.74-.81-1.49-1.62-2.21-2.44-2.78-3.2-5.55-6.41-8.34-9.6-.46-.53-.99-1-1.48-1.5-.06.03-.13.06-.19.09.11.36.11.8.33,1.07,1.86,2.24,3.76,4.45,5.65,6.67,1.2,1.4,2.4,2.79,3.61,4.17.98,1.12,1.98,2.24,3,3.38ZM4.13,25.12c-.06.03-.12.06-.18.09.14.37.19.82.44,1.1,2.09,2.4,4.21,4.78,6.31,7.16,1.75,1.98,3.49,3.97,5.24,5.95.28.32.58.62.96,1.02.13-.75.06-1.21-.36-1.66-1.55-1.68-3.05-3.41-4.58-5.11-2.49-2.77-4.99-5.52-7.49-8.28-.1-.11-.23-.19-.34-.28Zm9.92,3.41c2.16,2.36,4.29,4.7,6.43,7.03.09-.04.18-.09.27-.13-.18-.59-.19-1.32-.56-1.75-1.49-1.74-3.11-3.36-4.63-5.07-.46-.52-.85-.56-1.5-.07Zm7.86,4.99c-.19-.22-.34-.41-.5-.58-1.58-1.65-3.19-3.29-4.75-4.97-.38-.41-.64-.38-1.01.01.15.21.27.42.44.6,1.41,1.55,2.84,3.07,4.21,4.64.46.53.88.7,1.61.3Zm1.65-2.28c-1.35-1.45-2.66-2.83-3.94-4.23-.46-.51-.86-.39-1.37.01.15.19.28.36.43.52,1.07,1.15,2.17,2.27,3.2,3.45.47.54.94.59,1.67.24Zm-1.6,1.76c.09-.04.18-.08.27-.12-.2-.55-.26-1.22-.62-1.63-1.13-1.3-2.39-2.5-3.57-3.76-.39-.42-.7-.36-1.15.03,1.71,1.85,3.38,3.66,5.06,5.48Zm1.57-2.31c.17-.81.13-1.45-.51-2-.76-.65-1.46-1.39-2.1-2.16-.41-.49-.73-.48-1.22-.03,1.29,1.41,2.56,2.8,3.84,4.19Zm-2.53-4.74c.16.19.3.38.47.55.67.69,1.35,1.37,2.01,2.08.59.63.67.66,1.54.1-.85-.9-1.69-1.79-2.52-2.68-.47-.5-.94-.53-1.49-.04Zm1.46-.56c.94.99,1.83,1.93,2.84,2.99.01-1.04-.2-1.75-.88-2.28-.28-.22-.57-.45-.78-.73-.37-.49-.71-.42-1.18.02Zm4,.87c-.47-.47-.96-.89-1.36-1.38-.42-.52-.81-.39-1.34-.04.4.43.8.81,1.14,1.24.45.57.93.57,1.56.19Zm.24-.33c.05-.03.1-.07.16-.1-.05-.64-.1-1.31-.69-1.7-.19-.12-.58.06-.88.1-.05.11-.11.21-.16.32l1.57,1.38Zm0-2.07c.48.86.69.92,1.47.47-.58-.91-.71-.95-1.47-.47Z"/></g></g></svg>