<?xml version="1.0" encoding="UTF-8"?><svg id="Ebene_2" xmlns="http://www.w3.org/2000/svg" viewBox="0 0 40.8 37.95"><defs><style>.cls-1{stroke-width:0px;}</style></defs><g id="Ebene_1-2"><g id="aLU7eW.tif"><path class="cls-1" d="m33.26,17.98c.4,0,.55.02.69,0,1.93-.36,3.19.59,4.57,1.86,1.73,1.59,2.38,3.25,2.27,5.57-.19,3.78-.05,7.58-.05,11.37,0,.35,0,.69,0,1.16-.4,0-.71,0-1.02,0-11.54,0-23.08,0-34.62.01-.61,0-1.04-.18-1.45-.62-.99-1.04-2.06-2.01-3.02-3.08-.31-.35-.56-.89-.57-1.36-.06-2.35,0-4.7-.04-7.05-.02-.8.19-1.38.78-1.93,1.32-1.2,2.58-2.47,3.92-3.76-1.45-1.48-2.81-2.82-4.09-4.22-.32-.34-.56-.9-.57-1.36C0,10.05.02,5.53.02,1c0-.29,0-.58,0-.99.37,0,.68,0,.99,0,11.74,0,23.49,0,35.23-.01.61,0,1.05.15,1.46.6.75.82,1.54,1.62,2.36,2.37.49.45.7.93.68,1.61-.05,1.67.02,3.35-.04,5.02-.02.44-.22.97-.52,1.28-2.22,2.33-4.49,4.62-6.92,7.09Zm-11.88-11.74c-.37.39-.58.62-.81.84-6,6-12,12.01-18,18.02-.24.24-.58.54-.59.82-.05,2.16-.03,4.33-.03,6.5h34.02v-12.5h-4.35c0,.6-.02,1.13,0,1.66.13,3.27-2.32,6.38-6.35,6.37-2.76,0-5.52,0-8.28,0-.27,0-.55-.03-.82-.04-.04-.07-.08-.15-.12-.22,1.59-1.55,3.19-3.1,4.77-4.66,4.91-4.89,9.81-9.79,14.71-14.69.2-.2.47-.46.48-.7.04-1.78.02-3.56.02-5.33H1.9v11.59h4.52c.08-.91.12-1.78.22-2.64.3-2.54,2.62-4.9,5.17-4.99,3.1-.11,6.21-.03,9.57-.03Z"/></g></g></svg>