

<svg  width="1000"
      height="80" viewBox="0 0 1245 112" fill="none" xmlns="http://www.w3.org/2000/svg">
<path d="M0 55.875C0 50.225 0.5875 44.925 1.7625 39.975C2.9625 35 4.6625 30.45 6.8625 26.325C9.0625 22.175 11.725 18.475 14.85 15.225C18 11.975 21.525 9.225 25.425 6.975C29.35 4.7 33.6125 2.975 38.2125 1.79999C42.8375 0.599998 47.725 0 52.875 0C58.025 0 62.9 0.599998 67.5 1.79999C72.1 2.975 76.3625 4.7 80.2875 6.975C84.2125 9.225 87.7375 11.975 90.8625 15.225C94.0125 18.475 96.6875 22.175 98.8875 26.325C101.088 30.45 102.775 35 103.95 39.975C105.15 44.925 105.75 50.225 105.75 55.875C105.75 61.525 105.15 66.8375 103.95 71.8125C102.775 76.7625 101.088 81.3125 98.8875 85.4625C96.6875 89.5875 94.0125 93.275 90.8625 96.525C87.7375 99.775 84.2125 102.537 80.2875 104.812C76.3625 107.062 72.0875 108.775 67.4625 109.95C62.8625 111.15 58 111.75 52.875 111.75C47.725 111.75 42.8375 111.15 38.2125 109.95C33.6125 108.775 29.35 107.062 25.425 104.812C21.525 102.537 18 99.775 14.85 96.525C11.725 93.275 9.0625 89.5875 6.8625 85.4625C4.6625 81.3125 2.9625 76.7625 1.7625 71.8125C0.5875 66.8375 0 61.525 0 55.875ZM27.9 55.875C27.9 61.225 28.4375 65.95 29.5125 70.05C30.6125 74.125 32.2125 77.5375 34.3125 80.2875C36.4375 83.0125 39.05 85.075 42.15 86.475C45.275 87.875 48.85 88.575 52.875 88.575C56.9 88.575 60.4625 87.875 63.5625 86.475C66.6625 85.075 69.275 83.0125 71.4 80.2875C73.525 77.5375 75.125 74.125 76.2 70.05C77.3 65.95 77.85 61.225 77.85 55.875C77.85 50.5 77.3 45.775 76.2 41.7C75.125 37.625 73.525 34.2125 71.4 31.4625C69.275 28.7125 66.6625 26.65 63.5625 25.275C60.4625 23.875 56.9 23.175 52.875 23.175C48.85 23.175 45.275 23.875 42.15 25.275C39.05 26.65 36.4375 28.7125 34.3125 31.4625C32.2125 34.2125 30.6125 37.625 29.5125 41.7C28.4375 45.775 27.9 50.5 27.9 55.875Z" fill="black"/>
<path d="M142.284 86.55H196.547V109.5H110.109V85.425L160.697 25.2H111.984V2.25H192.797V26.325L142.284 86.55Z" fill="black"/>
<path d="M279.81 2.25V25.2H232.56V45.2625H275.535V66.6375H232.56V86.55H281.085V109.5H204.885V2.25H279.81Z" fill="black"/>
<path d="M315.616 2.25V86.55H361.141V109.5H287.941V2.25H315.616Z" fill="black"/>
<path d="M362.256 55.875C362.256 50.225 362.843 44.925 364.018 39.975C365.218 35 366.918 30.45 369.118 26.325C371.318 22.175 373.981 18.475 377.106 15.225C380.256 11.975 383.781 9.225 387.681 6.975C391.606 4.7 395.868 2.975 400.468 1.79999C405.093 0.599998 409.981 0 415.131 0C420.281 0 425.156 0.599998 429.756 1.79999C434.356 2.975 438.618 4.7 442.543 6.975C446.468 9.225 449.993 11.975 453.118 15.225C456.268 18.475 458.943 22.175 461.143 26.325C463.343 30.45 465.031 35 466.206 39.975C467.406 44.925 468.006 50.225 468.006 55.875C468.006 61.525 467.406 66.8375 466.206 71.8125C465.031 76.7625 463.343 81.3125 461.143 85.4625C458.943 89.5875 456.268 93.275 453.118 96.525C449.993 99.775 446.468 102.537 442.543 104.812C438.618 107.062 434.343 108.775 429.718 109.95C425.118 111.15 420.256 111.75 415.131 111.75C409.981 111.75 405.093 111.15 400.468 109.95C395.868 108.775 391.606 107.062 387.681 104.812C383.781 102.537 380.256 99.775 377.106 96.525C373.981 93.275 371.318 89.5875 369.118 85.4625C366.918 81.3125 365.218 76.7625 364.018 71.8125C362.843 66.8375 362.256 61.525 362.256 55.875ZM390.156 55.875C390.156 61.225 390.693 65.95 391.768 70.05C392.868 74.125 394.468 77.5375 396.568 80.2875C398.693 83.0125 401.306 85.075 404.406 86.475C407.531 87.875 411.106 88.575 415.131 88.575C419.156 88.575 422.718 87.875 425.818 86.475C428.918 85.075 431.531 83.0125 433.656 80.2875C435.781 77.5375 437.381 74.125 438.456 70.05C439.556 65.95 440.106 61.225 440.106 55.875C440.106 50.5 439.556 45.775 438.456 41.7C437.381 37.625 435.781 34.2125 433.656 31.4625C431.531 28.7125 428.918 26.65 425.818 25.275C422.718 23.875 419.156 23.175 415.131 23.175C411.106 23.175 407.531 23.875 404.406 25.275C401.306 26.65 398.693 28.7125 396.568 31.4625C394.468 34.2125 392.868 37.625 391.768 41.7C390.693 45.775 390.156 50.5 390.156 55.875Z" fill="black"/>
<path d="M560.555 25.2H528.83V109.5H501.155V25.2H469.43V2.25H560.555V25.2Z" fill="black"/>
<path d="M647.645 0C654.77 0 661.17 0.849998 666.845 2.54999C672.52 4.225 677.332 6.65 681.282 9.82499C685.257 12.975 688.295 16.825 690.395 21.375C692.495 25.925 693.545 31.075 693.545 36.825H667.145C667.145 34.5 666.67 32.4125 665.72 30.5625C664.795 28.7125 663.457 27.15 661.707 25.875C659.982 24.575 657.895 23.575 655.445 22.875C652.995 22.175 650.257 21.825 647.232 21.825C644.732 21.825 642.345 22.075 640.07 22.575C637.82 23.05 635.832 23.7625 634.107 24.7125C632.382 25.6625 631.007 26.85 629.982 28.275C628.982 29.675 628.482 31.3 628.482 33.15C628.482 35.025 628.932 36.5375 629.832 37.6875C630.757 38.8375 632.145 39.7875 633.995 40.5375C635.845 41.2625 638.17 41.875 640.97 42.375C643.77 42.875 647.057 43.4 650.832 43.95L654.62 44.475C656.845 44.8 659.157 45.1625 661.557 45.5625C663.957 45.9375 666.357 46.4 668.757 46.95C671.157 47.5 673.52 48.175 675.845 48.975C678.17 49.75 680.382 50.7 682.482 51.825C684.582 52.925 686.52 54.2375 688.295 55.7625C690.07 57.2875 691.595 59.0625 692.87 61.0875C694.17 63.0875 695.182 65.3875 695.907 67.9875C696.632 70.5625 696.995 73.475 696.995 76.725C696.995 82.375 695.87 87.3875 693.62 91.7625C691.37 96.1125 688.145 99.775 683.945 102.75C679.745 105.7 674.645 107.938 668.645 109.463C662.67 110.988 655.945 111.75 648.47 111.75C640.495 111.75 633.445 110.888 627.32 109.163C621.195 107.438 616.057 104.963 611.907 101.738C607.757 98.4875 604.62 94.525 602.495 89.85C600.37 85.175 599.307 79.875 599.307 73.95H625.707C625.707 76.45 626.22 78.7 627.245 80.7C628.295 82.675 629.795 84.35 631.745 85.725C633.695 87.075 636.057 88.1125 638.832 88.8375C641.632 89.5625 644.795 89.925 648.32 89.925C651.32 89.925 654.107 89.6625 656.682 89.1375C659.282 88.6125 661.52 87.8375 663.395 86.8125C665.295 85.7625 666.782 84.475 667.857 82.95C668.957 81.4 669.507 79.6125 669.507 77.5875C669.507 75.5625 669.032 73.9375 668.082 72.7125C667.157 71.4875 665.77 70.4875 663.92 69.7125C662.095 68.9375 659.807 68.325 657.057 67.875C654.307 67.4 651.132 66.925 647.532 66.45L642.507 65.7375C639.632 65.3375 636.607 64.8875 633.432 64.3875C630.257 63.8875 627.132 63.2 624.057 62.325C620.982 61.45 618.045 60.325 615.245 58.95C612.47 57.55 610.02 55.7875 607.895 53.6625C605.77 51.5125 604.082 48.925 602.832 45.9C601.582 42.85 600.957 39.225 600.957 35.025C600.957 31.225 601.482 27.725 602.532 24.525C603.607 21.325 605.12 18.4375 607.07 15.8625C609.045 13.2625 611.432 10.975 614.232 9C617.032 7.025 620.157 5.375 623.607 4.05C627.057 2.7 630.807 1.6875 634.857 1.0125C638.907 0.337499 643.17 0 647.645 0Z" fill="black"/>
<path d="M789.51 25.2H757.785V109.5H730.11V25.2H698.385V2.25H789.51V25.2Z" fill="black"/>
<path d="M795.217 2.25H822.892V64.275C822.892 68.525 823.317 72.1875 824.167 75.2625C825.017 78.3125 826.267 80.825 827.917 82.8C829.592 84.775 831.654 86.2375 834.104 87.1875C836.554 88.1125 839.367 88.575 842.542 88.575C845.742 88.575 848.567 88.1125 851.017 87.1875C853.467 86.2375 855.517 84.775 857.167 82.8C858.817 80.825 860.067 78.3125 860.917 75.2625C861.767 72.1875 862.192 68.525 862.192 64.275V2.25H889.867V66.75C889.867 73.975 888.704 80.3875 886.379 85.9875C884.054 91.5625 880.792 96.2625 876.592 100.088C872.417 103.913 867.429 106.813 861.629 108.788C855.854 110.763 849.492 111.75 842.542 111.75C837.917 111.75 833.542 111.3 829.417 110.4C825.292 109.525 821.467 108.225 817.942 106.5C814.442 104.775 811.292 102.638 808.492 100.088C805.692 97.5375 803.304 94.6 801.329 91.275C799.354 87.925 797.842 84.2125 796.792 80.1375C795.742 76.0375 795.217 71.575 795.217 66.75V2.25Z" fill="black"/>
<path d="M898.342 2.25H939.367C944.692 2.25 949.717 2.825 954.442 3.975C959.167 5.1 963.529 6.7375 967.529 8.8875C971.529 11.0375 975.104 13.675 978.254 16.8C981.429 19.925 984.129 23.475 986.354 27.45C988.579 31.425 990.279 35.8 991.454 40.575C992.629 45.325 993.217 50.425 993.217 55.875C993.217 61.325 992.629 66.4375 991.454 71.2125C990.279 75.9625 988.579 80.325 986.354 84.3C984.129 88.275 981.429 91.825 978.254 94.95C975.104 98.075 971.529 100.713 967.529 102.863C963.529 105.013 959.167 106.662 954.442 107.812C949.717 108.938 944.692 109.5 939.367 109.5H898.342V2.25ZM938.579 86.325C942.879 86.325 946.692 85.675 950.017 84.375C953.342 83.075 956.129 81.15 958.379 78.6C960.654 76.05 962.379 72.875 963.554 69.075C964.729 65.275 965.317 60.875 965.317 55.875C965.317 50.875 964.729 46.475 963.554 42.675C962.379 38.875 960.654 35.7 958.379 33.15C956.129 30.6 953.342 28.675 950.017 27.375C946.692 26.075 942.879 25.425 938.579 25.425H925.867V86.325H938.579Z" fill="black"/>
<path d="M1028.85 109.5H1001.17V2.25H1028.85V109.5Z" fill="black"/>
<path d="M1036.82 55.875C1036.82 50.225 1037.4 44.925 1038.58 39.975C1039.78 35 1041.48 30.45 1043.68 26.325C1045.88 22.175 1048.54 18.475 1051.67 15.225C1054.82 11.975 1058.34 9.225 1062.24 6.975C1066.17 4.7 1070.43 2.975 1075.03 1.79999C1079.65 0.599998 1084.54 0 1089.69 0C1094.84 0 1099.72 0.599998 1104.32 1.79999C1108.92 2.975 1113.18 4.7 1117.1 6.975C1121.03 9.225 1124.55 11.975 1127.68 15.225C1130.83 18.475 1133.5 22.175 1135.7 26.325C1137.9 30.45 1139.59 35 1140.77 39.975C1141.97 44.925 1142.57 50.225 1142.57 55.875C1142.57 61.525 1141.97 66.8375 1140.77 71.8125C1139.59 76.7625 1137.9 81.3125 1135.7 85.4625C1133.5 89.5875 1130.83 93.275 1127.68 96.525C1124.55 99.775 1121.03 102.537 1117.1 104.812C1113.18 107.062 1108.9 108.775 1104.28 109.95C1099.68 111.15 1094.82 111.75 1089.69 111.75C1084.54 111.75 1079.65 111.15 1075.03 109.95C1070.43 108.775 1066.17 107.062 1062.24 104.812C1058.34 102.537 1054.82 99.775 1051.67 96.525C1048.54 93.275 1045.88 89.5875 1043.68 85.4625C1041.48 81.3125 1039.78 76.7625 1038.58 71.8125C1037.4 66.8375 1036.82 61.525 1036.82 55.875ZM1064.72 55.875C1064.72 61.225 1065.25 65.95 1066.33 70.05C1067.43 74.125 1069.03 77.5375 1071.13 80.2875C1073.25 83.0125 1075.87 85.075 1078.97 86.475C1082.09 87.875 1085.67 88.575 1089.69 88.575C1093.72 88.575 1097.28 87.875 1100.38 86.475C1103.48 85.075 1106.09 83.0125 1108.22 80.2875C1110.34 77.5375 1111.94 74.125 1113.02 70.05C1114.12 65.95 1114.67 61.225 1114.67 55.875C1114.67 50.5 1114.12 45.775 1113.02 41.7C1111.94 37.625 1110.34 34.2125 1108.22 31.4625C1106.09 28.7125 1103.48 26.65 1100.38 25.275C1097.28 23.875 1093.72 23.175 1089.69 23.175C1085.67 23.175 1082.09 23.875 1078.97 25.275C1075.87 26.65 1073.25 28.7125 1071.13 31.4625C1069.03 34.2125 1067.43 37.625 1066.33 41.7C1065.25 45.775 1064.72 50.5 1064.72 55.875Z" fill="black"/>
<path d="M1195.64 0C1202.77 0 1209.17 0.849998 1214.84 2.54999C1220.52 4.225 1225.33 6.65 1229.28 9.82499C1233.26 12.975 1236.29 16.825 1238.39 21.375C1240.49 25.925 1241.54 31.075 1241.54 36.825H1215.14C1215.14 34.5 1214.67 32.4125 1213.72 30.5625C1212.79 28.7125 1211.46 27.15 1209.71 25.875C1207.98 24.575 1205.89 23.575 1203.44 22.875C1200.99 22.175 1198.26 21.825 1195.23 21.825C1192.73 21.825 1190.34 22.075 1188.07 22.575C1185.82 23.05 1183.83 23.7625 1182.11 24.7125C1180.38 25.6625 1179.01 26.85 1177.98 28.275C1176.98 29.675 1176.48 31.3 1176.48 33.15C1176.48 35.025 1176.93 36.5375 1177.83 37.6875C1178.76 38.8375 1180.14 39.7875 1181.99 40.5375C1183.84 41.2625 1186.17 41.875 1188.97 42.375C1191.77 42.875 1195.06 43.4 1198.83 43.95L1202.62 44.475C1204.84 44.8 1207.16 45.1625 1209.56 45.5625C1211.96 45.9375 1214.36 46.4 1216.76 46.95C1219.16 47.5 1221.52 48.175 1223.84 48.975C1226.17 49.75 1228.38 50.7 1230.48 51.825C1232.58 52.925 1234.52 54.2375 1236.29 55.7625C1238.07 57.2875 1239.59 59.0625 1240.87 61.0875C1242.17 63.0875 1243.18 65.3875 1243.91 67.9875C1244.63 70.5625 1244.99 73.475 1244.99 76.725C1244.99 82.375 1243.87 87.3875 1241.62 91.7625C1239.37 96.1125 1236.14 99.775 1231.94 102.75C1227.74 105.7 1222.64 107.938 1216.64 109.463C1210.67 110.988 1203.94 111.75 1196.47 111.75C1188.49 111.75 1181.44 110.888 1175.32 109.163C1169.19 107.438 1164.06 104.963 1159.91 101.738C1155.76 98.4875 1152.62 94.525 1150.49 89.85C1148.37 85.175 1147.31 79.875 1147.31 73.95H1173.71C1173.71 76.45 1174.22 78.7 1175.24 80.7C1176.29 82.675 1177.79 84.35 1179.74 85.725C1181.69 87.075 1184.06 88.1125 1186.83 88.8375C1189.63 89.5625 1192.79 89.925 1196.32 89.925C1199.32 89.925 1202.11 89.6625 1204.68 89.1375C1207.28 88.6125 1209.52 87.8375 1211.39 86.8125C1213.29 85.7625 1214.78 84.475 1215.86 82.95C1216.96 81.4 1217.51 79.6125 1217.51 77.5875C1217.51 75.5625 1217.03 73.9375 1216.08 72.7125C1215.16 71.4875 1213.77 70.4875 1211.92 69.7125C1210.09 68.9375 1207.81 68.325 1205.06 67.875C1202.31 67.4 1199.13 66.925 1195.53 66.45L1190.51 65.7375C1187.63 65.3375 1184.61 64.8875 1181.43 64.3875C1178.26 63.8875 1175.13 63.2 1172.06 62.325C1168.98 61.45 1166.04 60.325 1163.24 58.95C1160.47 57.55 1158.02 55.7875 1155.89 53.6625C1153.77 51.5125 1152.08 48.925 1150.83 45.9C1149.58 42.85 1148.96 39.225 1148.96 35.025C1148.96 31.225 1149.48 27.725 1150.53 24.525C1151.61 21.325 1153.12 18.4375 1155.07 15.8625C1157.04 13.2625 1159.43 10.975 1162.23 9C1165.03 7.025 1168.16 5.375 1171.61 4.05C1175.06 2.7 1178.81 1.6875 1182.86 1.0125C1186.91 0.337499 1191.17 0 1195.64 0Z" fill="black"/>
</svg>
