<svg width="270" height="70" viewBox="0 0 270 100" fill="green" xmlns="http://www.w3.org/2000/svg">
<mask id="path-1-outside-1_212_6" maskUnits="userSpaceOnUse" x="18" y="-1" width="234" height="48" fill="black">
<rect fill="white" x="18" y="-1" width="234" height="48"/>
<path d="M19 23C19 20.6743 19.243 18.4926 19.7291 16.455C20.2255 14.4072 20.9287 12.5342 21.8387 10.8362C22.7488 9.12796 23.8501 7.60492 25.1428 6.26711C26.4458 4.92931 27.904 3.79731 29.5172 2.87114C31.1408 1.93468 32.904 1.22461 34.8069 0.740937C36.72 0.246979 38.7418 0 40.8721 0C43.0024 0 45.019 0.246979 46.9218 0.740937C48.8247 1.22461 50.5879 1.93468 52.2115 2.87114C53.8351 3.79731 55.2932 4.92931 56.5859 6.26711C57.8889 7.60492 58.9955 9.12796 59.9055 10.8362C60.8156 12.5342 61.5136 14.4072 61.9996 16.455C62.496 18.4926 62.7442 20.6743 62.7442 23C62.7442 25.3257 62.496 27.5125 61.9996 29.5604C61.5136 31.598 60.8156 33.4709 59.9055 35.1792C58.9955 36.8772 57.8889 38.3951 56.5859 39.7329C55.2932 41.0707 53.8351 42.2078 52.2115 43.1443C50.5879 44.0705 48.8195 44.7754 46.9063 45.2591C45.0035 45.753 42.9921 46 40.8721 46C38.7418 46 36.72 45.753 34.8069 45.2591C32.904 44.7754 31.1408 44.0705 29.5172 43.1443C27.904 42.2078 26.4458 41.0707 25.1428 39.7329C23.8501 38.3951 22.7488 36.8772 21.8387 35.1792C20.9287 33.4709 20.2255 31.598 19.7291 29.5604C19.243 27.5125 19 25.3257 19 23ZM30.541 23C30.541 25.2022 30.7634 27.1472 31.2081 28.8349C31.6631 30.5123 32.3249 31.917 33.1936 33.049C34.0726 34.1707 35.1533 35.0197 36.4356 35.596C37.7283 36.1723 39.2071 36.4604 40.8721 36.4604C42.5371 36.4604 44.0107 36.1723 45.2931 35.596C46.5754 35.0197 47.6561 34.1707 48.5351 33.049C49.4141 31.917 50.076 30.5123 50.5207 28.8349C50.9757 27.1472 51.2032 25.2022 51.2032 23C51.2032 20.7875 50.9757 18.8425 50.5207 17.1651C50.076 15.4877 49.4141 14.083 48.5351 12.951C47.6561 11.819 46.5754 10.97 45.2931 10.404C44.0107 9.82774 42.5371 9.5396 40.8721 9.5396C39.2071 9.5396 37.7283 9.82774 36.4356 10.404C35.1533 10.97 34.0726 11.819 33.1936 12.951C32.3249 14.083 31.6631 15.4877 31.2081 17.1651C30.7634 18.8425 30.541 20.7875 30.541 23Z"/>
<path d="M77.8569 35.6268H100.303V45.0738H64.5475V35.1638L85.4734 10.3732H65.3231V0.926174H98.7518V10.8362L77.8569 35.6268Z"/>
<path d="M134.745 0.926174V10.3732H115.2V18.6315H132.977V27.4302H115.2V35.6268H135.273V45.0738H103.752V0.926174H134.745Z"/>
<path d="M149.557 0.926174V35.6268H168.389V45.0738H138.109V0.926174H149.557Z"/>
<path d="M168.85 23C168.85 20.6743 169.093 18.4926 169.579 16.455C170.075 14.4072 170.778 12.5342 171.688 10.8362C172.598 9.12796 173.7 7.60492 174.992 6.26711C176.296 4.92931 177.754 3.79731 179.367 2.87114C180.99 1.93468 182.754 1.22461 184.657 0.740937C186.57 0.246979 188.591 0 190.722 0C192.852 0 194.869 0.246979 196.772 0.740937C198.674 1.22461 200.438 1.93468 202.061 2.87114C203.685 3.79731 205.143 4.92931 206.436 6.26711C207.739 7.60492 208.845 9.12796 209.755 10.8362C210.665 12.5342 211.363 14.4072 211.849 16.455C212.346 18.4926 212.594 20.6743 212.594 23C212.594 25.3257 212.346 27.5125 211.849 29.5604C211.363 31.598 210.665 33.4709 209.755 35.1792C208.845 36.8772 207.739 38.3951 206.436 39.7329C205.143 41.0707 203.685 42.2078 202.061 43.1443C200.438 44.0705 198.669 44.7754 196.756 45.2591C194.853 45.753 192.842 46 190.722 46C188.591 46 186.57 45.753 184.657 45.2591C182.754 44.7754 180.99 44.0705 179.367 43.1443C177.754 42.2078 176.296 41.0707 174.992 39.7329C173.7 38.3951 172.598 36.8772 171.688 35.1792C170.778 33.4709 170.075 31.598 169.579 29.5604C169.093 27.5125 168.85 25.3257 168.85 23ZM180.391 23C180.391 25.2022 180.613 27.1472 181.058 28.8349C181.513 30.5123 182.175 31.917 183.043 33.049C183.922 34.1707 185.003 35.0197 186.285 35.596C187.578 36.1723 189.057 36.4604 190.722 36.4604C192.387 36.4604 193.86 36.1723 195.143 35.596C196.425 35.0197 197.506 34.1707 198.385 33.049C199.264 31.917 199.926 30.5123 200.37 28.8349C200.825 27.1472 201.053 25.2022 201.053 23C201.053 20.7875 200.825 18.8425 200.37 17.1651C199.926 15.4877 199.264 14.083 198.385 12.951C197.506 11.819 196.425 10.97 195.143 10.404C193.86 9.82774 192.387 9.5396 190.722 9.5396C189.057 9.5396 187.578 9.82774 186.285 10.404C185.003 10.97 183.922 11.819 183.043 12.951C182.175 14.083 181.513 15.4877 181.058 17.1651C180.613 18.8425 180.391 20.7875 180.391 23Z"/>
<path d="M250.877 10.3732H237.754V45.0738H226.306V10.3732H213.183V0.926174H250.877V10.3732Z"/>
</mask>
<path d="M19 23C19 20.6743 19.243 18.4926 19.7291 16.455C20.2255 14.4072 20.9287 12.5342 21.8387 10.8362C22.7488 9.12796 23.8501 7.60492 25.1428 6.26711C26.4458 4.92931 27.904 3.79731 29.5172 2.87114C31.1408 1.93468 32.904 1.22461 34.8069 0.740937C36.72 0.246979 38.7418 0 40.8721 0C43.0024 0 45.019 0.246979 46.9218 0.740937C48.8247 1.22461 50.5879 1.93468 52.2115 2.87114C53.8351 3.79731 55.2932 4.92931 56.5859 6.26711C57.8889 7.60492 58.9955 9.12796 59.9055 10.8362C60.8156 12.5342 61.5136 14.4072 61.9996 16.455C62.496 18.4926 62.7442 20.6743 62.7442 23C62.7442 25.3257 62.496 27.5125 61.9996 29.5604C61.5136 31.598 60.8156 33.4709 59.9055 35.1792C58.9955 36.8772 57.8889 38.3951 56.5859 39.7329C55.2932 41.0707 53.8351 42.2078 52.2115 43.1443C50.5879 44.0705 48.8195 44.7754 46.9063 45.2591C45.0035 45.753 42.9921 46 40.8721 46C38.7418 46 36.72 45.753 34.8069 45.2591C32.904 44.7754 31.1408 44.0705 29.5172 43.1443C27.904 42.2078 26.4458 41.0707 25.1428 39.7329C23.8501 38.3951 22.7488 36.8772 21.8387 35.1792C20.9287 33.4709 20.2255 31.598 19.7291 29.5604C19.243 27.5125 19 25.3257 19 23ZM30.541 23C30.541 25.2022 30.7634 27.1472 31.2081 28.8349C31.6631 30.5123 32.3249 31.917 33.1936 33.049C34.0726 34.1707 35.1533 35.0197 36.4356 35.596C37.7283 36.1723 39.2071 36.4604 40.8721 36.4604C42.5371 36.4604 44.0107 36.1723 45.2931 35.596C46.5754 35.0197 47.6561 34.1707 48.5351 33.049C49.4141 31.917 50.076 30.5123 50.5207 28.8349C50.9757 27.1472 51.2032 25.2022 51.2032 23C51.2032 20.7875 50.9757 18.8425 50.5207 17.1651C50.076 15.4877 49.4141 14.083 48.5351 12.951C47.6561 11.819 46.5754 10.97 45.2931 10.404C44.0107 9.82774 42.5371 9.5396 40.8721 9.5396C39.2071 9.5396 37.7283 9.82774 36.4356 10.404C35.1533 10.97 34.0726 11.819 33.1936 12.951C32.3249 14.083 31.6631 15.4877 31.2081 17.1651C30.7634 18.8425 30.541 20.7875 30.541 23Z" fill="#232323"/>
<path d="M77.8569 35.6268H100.303V45.0738H64.5475V35.1638L85.4734 10.3732H65.3231V0.926174H98.7518V10.8362L77.8569 35.6268Z" fill="#232323"/>
<path d="M134.745 0.926174V10.3732H115.2V18.6315H132.977V27.4302H115.2V35.6268H135.273V45.0738H103.752V0.926174H134.745Z" fill="#232323"/>
<path d="M149.557 0.926174V35.6268H168.389V45.0738H138.109V0.926174H149.557Z" fill="#232323"/>
<path d="M168.85 23C168.85 20.6743 169.093 18.4926 169.579 16.455C170.075 14.4072 170.778 12.5342 171.688 10.8362C172.598 9.12796 173.7 7.60492 174.992 6.26711C176.296 4.92931 177.754 3.79731 179.367 2.87114C180.99 1.93468 182.754 1.22461 184.657 0.740937C186.57 0.246979 188.591 0 190.722 0C192.852 0 194.869 0.246979 196.772 0.740937C198.674 1.22461 200.438 1.93468 202.061 2.87114C203.685 3.79731 205.143 4.92931 206.436 6.26711C207.739 7.60492 208.845 9.12796 209.755 10.8362C210.665 12.5342 211.363 14.4072 211.849 16.455C212.346 18.4926 212.594 20.6743 212.594 23C212.594 25.3257 212.346 27.5125 211.849 29.5604C211.363 31.598 210.665 33.4709 209.755 35.1792C208.845 36.8772 207.739 38.3951 206.436 39.7329C205.143 41.0707 203.685 42.2078 202.061 43.1443C200.438 44.0705 198.669 44.7754 196.756 45.2591C194.853 45.753 192.842 46 190.722 46C188.591 46 186.57 45.753 184.657 45.2591C182.754 44.7754 180.99 44.0705 179.367 43.1443C177.754 42.2078 176.296 41.0707 174.992 39.7329C173.7 38.3951 172.598 36.8772 171.688 35.1792C170.778 33.4709 170.075 31.598 169.579 29.5604C169.093 27.5125 168.85 25.3257 168.85 23ZM180.391 23C180.391 25.2022 180.613 27.1472 181.058 28.8349C181.513 30.5123 182.175 31.917 183.043 33.049C183.922 34.1707 185.003 35.0197 186.285 35.596C187.578 36.1723 189.057 36.4604 190.722 36.4604C192.387 36.4604 193.86 36.1723 195.143 35.596C196.425 35.0197 197.506 34.1707 198.385 33.049C199.264 31.917 199.926 30.5123 200.37 28.8349C200.825 27.1472 201.053 25.2022 201.053 23C201.053 20.7875 200.825 18.8425 200.37 17.1651C199.926 15.4877 199.264 14.083 198.385 12.951C197.506 11.819 196.425 10.97 195.143 10.404C193.86 9.82774 192.387 9.5396 190.722 9.5396C189.057 9.5396 187.578 9.82774 186.285 10.404C185.003 10.97 183.922 11.819 183.043 12.951C182.175 14.083 181.513 15.4877 181.058 17.1651C180.613 18.8425 180.391 20.7875 180.391 23Z" fill="#232323"/>
<path d="M250.877 10.3732H237.754V45.0738H226.306V10.3732H213.183V0.926174H250.877V10.3732Z" fill="#232323"/>
<path d="M19 23C19 20.6743 19.243 18.4926 19.7291 16.455C20.2255 14.4072 20.9287 12.5342 21.8387 10.8362C22.7488 9.12796 23.8501 7.60492 25.1428 6.26711C26.4458 4.92931 27.904 3.79731 29.5172 2.87114C31.1408 1.93468 32.904 1.22461 34.8069 0.740937C36.72 0.246979 38.7418 0 40.8721 0C43.0024 0 45.019 0.246979 46.9218 0.740937C48.8247 1.22461 50.5879 1.93468 52.2115 2.87114C53.8351 3.79731 55.2932 4.92931 56.5859 6.26711C57.8889 7.60492 58.9955 9.12796 59.9055 10.8362C60.8156 12.5342 61.5136 14.4072 61.9996 16.455C62.496 18.4926 62.7442 20.6743 62.7442 23C62.7442 25.3257 62.496 27.5125 61.9996 29.5604C61.5136 31.598 60.8156 33.4709 59.9055 35.1792C58.9955 36.8772 57.8889 38.3951 56.5859 39.7329C55.2932 41.0707 53.8351 42.2078 52.2115 43.1443C50.5879 44.0705 48.8195 44.7754 46.9063 45.2591C45.0035 45.753 42.9921 46 40.8721 46C38.7418 46 36.72 45.753 34.8069 45.2591C32.904 44.7754 31.1408 44.0705 29.5172 43.1443C27.904 42.2078 26.4458 41.0707 25.1428 39.7329C23.8501 38.3951 22.7488 36.8772 21.8387 35.1792C20.9287 33.4709 20.2255 31.598 19.7291 29.5604C19.243 27.5125 19 25.3257 19 23ZM30.541 23C30.541 25.2022 30.7634 27.1472 31.2081 28.8349C31.6631 30.5123 32.3249 31.917 33.1936 33.049C34.0726 34.1707 35.1533 35.0197 36.4356 35.596C37.7283 36.1723 39.2071 36.4604 40.8721 36.4604C42.5371 36.4604 44.0107 36.1723 45.2931 35.596C46.5754 35.0197 47.6561 34.1707 48.5351 33.049C49.4141 31.917 50.076 30.5123 50.5207 28.8349C50.9757 27.1472 51.2032 25.2022 51.2032 23C51.2032 20.7875 50.9757 18.8425 50.5207 17.1651C50.076 15.4877 49.4141 14.083 48.5351 12.951C47.6561 11.819 46.5754 10.97 45.2931 10.404C44.0107 9.82774 42.5371 9.5396 40.8721 9.5396C39.2071 9.5396 37.7283 9.82774 36.4356 10.404C35.1533 10.97 34.0726 11.819 33.1936 12.951C32.3249 14.083 31.6631 15.4877 31.2081 17.1651C30.7634 18.8425 30.541 20.7875 30.541 23Z" stroke="#232323" stroke-width="2" mask="url(#path-1-outside-1_212_6)"/>
<path d="M77.8569 35.6268H100.303V45.0738H64.5475V35.1638L85.4734 10.3732H65.3231V0.926174H98.7518V10.8362L77.8569 35.6268Z" stroke="#232323" stroke-width="2" mask="url(#path-1-outside-1_212_6)"/>
<path d="M134.745 0.926174V10.3732H115.2V18.6315H132.977V27.4302H115.2V35.6268H135.273V45.0738H103.752V0.926174H134.745Z" stroke="#232323" stroke-width="2" mask="url(#path-1-outside-1_212_6)"/>
<path d="M149.557 0.926174V35.6268H168.389V45.0738H138.109V0.926174H149.557Z" stroke="#232323" stroke-width="2" mask="url(#path-1-outside-1_212_6)"/>
<path d="M168.85 23C168.85 20.6743 169.093 18.4926 169.579 16.455C170.075 14.4072 170.778 12.5342 171.688 10.8362C172.598 9.12796 173.7 7.60492 174.992 6.26711C176.296 4.92931 177.754 3.79731 179.367 2.87114C180.99 1.93468 182.754 1.22461 184.657 0.740937C186.57 0.246979 188.591 0 190.722 0C192.852 0 194.869 0.246979 196.772 0.740937C198.674 1.22461 200.438 1.93468 202.061 2.87114C203.685 3.79731 205.143 4.92931 206.436 6.26711C207.739 7.60492 208.845 9.12796 209.755 10.8362C210.665 12.5342 211.363 14.4072 211.849 16.455C212.346 18.4926 212.594 20.6743 212.594 23C212.594 25.3257 212.346 27.5125 211.849 29.5604C211.363 31.598 210.665 33.4709 209.755 35.1792C208.845 36.8772 207.739 38.3951 206.436 39.7329C205.143 41.0707 203.685 42.2078 202.061 43.1443C200.438 44.0705 198.669 44.7754 196.756 45.2591C194.853 45.753 192.842 46 190.722 46C188.591 46 186.57 45.753 184.657 45.2591C182.754 44.7754 180.99 44.0705 179.367 43.1443C177.754 42.2078 176.296 41.0707 174.992 39.7329C173.7 38.3951 172.598 36.8772 171.688 35.1792C170.778 33.4709 170.075 31.598 169.579 29.5604C169.093 27.5125 168.85 25.3257 168.85 23ZM180.391 23C180.391 25.2022 180.613 27.1472 181.058 28.8349C181.513 30.5123 182.175 31.917 183.043 33.049C183.922 34.1707 185.003 35.0197 186.285 35.596C187.578 36.1723 189.057 36.4604 190.722 36.4604C192.387 36.4604 193.86 36.1723 195.143 35.596C196.425 35.0197 197.506 34.1707 198.385 33.049C199.264 31.917 199.926 30.5123 200.37 28.8349C200.825 27.1472 201.053 25.2022 201.053 23C201.053 20.7875 200.825 18.8425 200.37 17.1651C199.926 15.4877 199.264 14.083 198.385 12.951C197.506 11.819 196.425 10.97 195.143 10.404C193.86 9.82774 192.387 9.5396 190.722 9.5396C189.057 9.5396 187.578 9.82774 186.285 10.404C185.003 10.97 183.922 11.819 183.043 12.951C182.175 14.083 181.513 15.4877 181.058 17.1651C180.613 18.8425 180.391 20.7875 180.391 23Z" stroke="#232323" stroke-width="2" mask="url(#path-1-outside-1_212_6)"/>
<path d="M250.877 10.3732H237.754V45.0738H226.306V10.3732H213.183V0.926174H250.877V10.3732Z" stroke="#232323" stroke-width="2" mask="url(#path-1-outside-1_212_6)"/>
<mask id="path-2-outside-2_212_6" maskUnits="userSpaceOnUse" x="0" y="52" width="270" height="48" fill="black">
<rect fill="white" y="52" width="270" height="48"/>
<path d="M20.9951 53C23.9424 53 26.5899 53.3499 28.9374 54.0497C31.2849 54.7391 33.2756 55.7374 34.9095 57.0443C36.5538 58.3409 37.8103 59.9257 38.679 61.7987C39.5476 63.6716 39.982 65.7915 39.982 68.1584H29.0614C29.0614 67.2013 28.865 66.3421 28.472 65.5805C28.0894 64.819 27.5361 64.1758 26.8122 63.651C26.0986 63.1159 25.2351 62.7042 24.2217 62.4161C23.2082 62.128 22.0758 61.9839 20.8245 61.9839C19.7904 61.9839 18.8028 62.0868 17.8617 62.2926C16.931 62.4881 16.1088 62.7814 15.3952 63.1725C14.6817 63.5635 14.1129 64.0523 13.6889 64.6389C13.2753 65.2152 13.0684 65.8841 13.0684 66.6456C13.0684 67.4174 13.2546 68.04 13.6269 68.5134C14.0095 68.9868 14.5835 69.3779 15.3487 69.6866C16.114 69.985 17.0757 70.2371 18.234 70.443C19.3922 70.6488 20.7521 70.8649 22.3137 71.0913L23.8804 71.3074C24.8008 71.4412 25.7574 71.5904 26.7501 71.755C27.7429 71.9094 28.7357 72.0998 29.7285 72.3262C30.7213 72.5526 31.6985 72.8304 32.6603 73.1597C33.622 73.4787 34.5373 73.8698 35.4059 74.3329C36.2746 74.7857 37.076 75.326 37.8103 75.9537C38.5445 76.5814 39.1754 77.3121 39.7028 78.1456C40.2405 78.9689 40.6593 79.9157 40.9592 80.9859C41.2591 82.0459 41.4091 83.2447 41.4091 84.5826C41.4091 86.9083 40.9437 88.9716 40.013 90.7725C39.0823 92.5631 37.7483 94.0707 36.0109 95.2953C34.2736 96.5096 32.1639 97.4306 29.6819 98.0584C27.2103 98.6861 24.4285 99 21.3364 99C18.0375 99 15.1212 98.645 12.5876 97.9349C10.0539 97.2248 7.92874 96.206 6.21207 94.8785C4.49539 93.5407 3.19756 91.9096 2.31854 89.9852C1.43952 88.0608 1 85.8792 1 83.4403H11.9205C11.9205 84.4694 12.1325 85.3955 12.5565 86.2188C12.9909 87.0318 13.6114 87.7213 14.418 88.2873C15.2246 88.843 16.2019 89.27 17.3498 89.5685C18.508 89.8669 19.8162 90.0161 21.2744 90.0161C22.5153 90.0161 23.6684 89.9081 24.7336 89.6919C25.8091 89.4758 26.7346 89.1568 27.5102 88.7349C28.2962 88.3027 28.9115 87.7727 29.3562 87.145C29.8112 86.5069 30.0387 85.7711 30.0387 84.9376C30.0387 84.104 29.8422 83.4351 29.4492 82.9309C29.0666 82.4266 28.4927 82.015 27.7274 81.696C26.9725 81.377 26.0262 81.1248 24.8887 80.9396C23.7511 80.7441 22.4378 80.5485 20.9486 80.353L18.87 80.0597C17.6807 79.8951 16.4294 79.7098 15.116 79.504C13.8027 79.2982 12.51 79.0152 11.238 78.655C9.96603 78.2949 8.75091 77.8318 7.59267 77.2658C6.44477 76.6895 5.43128 75.964 4.55226 75.0893C3.67324 74.2042 2.9752 73.1391 2.45813 71.894C1.94106 70.6385 1.68253 69.1463 1.68253 67.4174C1.68253 65.8532 1.89969 64.4125 2.33403 63.0953C2.77871 61.7781 3.40438 60.5895 4.21101 59.5295C5.02799 58.4593 6.01559 57.5177 7.17383 56.7047C8.33207 55.8917 9.62475 55.2125 11.0519 54.6671C12.479 54.1114 14.0302 53.6946 15.7055 53.4168C17.3808 53.1389 19.144 53 20.9951 53Z"/>
<path d="M79.6785 63.3732H66.5553V98.0738H55.1073V63.3732H41.984V53.9262H79.6785V63.3732Z"/>
<path d="M82.0393 53.9262H93.4872V79.4577C93.4872 81.2072 93.6631 82.7148 94.0147 83.9805C94.3663 85.236 94.8833 86.2702 95.5659 87.0832C96.2588 87.8962 97.1119 88.4982 98.1254 88.8893C99.1388 89.27 100.302 89.4604 101.616 89.4604C102.939 89.4604 104.108 89.27 105.121 88.8893C106.135 88.4982 106.983 87.8962 107.665 87.0832C108.348 86.2702 108.865 85.236 109.217 83.9805C109.568 82.7148 109.744 81.2072 109.744 79.4577V53.9262H121.192V80.4765C121.192 83.4506 120.711 86.0902 119.749 88.3953C118.788 90.6902 117.438 92.6248 115.701 94.1993C113.974 95.7738 111.91 96.9676 109.511 97.7805C107.122 98.5935 104.491 99 101.616 99C99.7024 99 97.8927 98.8148 96.1864 98.4443C94.48 98.0841 92.8978 97.549 91.4396 96.8389C89.9918 96.1289 88.6888 95.249 87.5306 94.1993C86.3724 93.1497 85.3847 91.9405 84.5678 90.5718C83.7508 89.1928 83.1251 87.6647 82.6908 85.9873C82.2564 84.2996 82.0393 82.4626 82.0393 80.4765V53.9262Z"/>
<path d="M124.698 53.9262H141.668C143.871 53.9262 145.949 54.1629 147.904 54.6362C149.858 55.0993 151.663 55.7734 153.318 56.6584C154.972 57.5434 156.451 58.6291 157.754 59.9154C159.067 61.2018 160.184 62.6631 161.105 64.2993C162.025 65.9356 162.728 67.7365 163.214 69.702C163.7 71.6573 163.943 73.7566 163.943 76C163.943 78.2434 163.7 80.3479 163.214 82.3134C162.728 84.2687 162.025 86.0644 161.105 87.7007C160.184 89.3369 159.067 90.7982 157.754 92.0846C156.451 93.3709 154.972 94.4566 153.318 95.3416C151.663 96.2266 149.858 96.9058 147.904 97.3792C145.949 97.8423 143.871 98.0738 141.668 98.0738H124.698V53.9262ZM141.342 88.5342C143.121 88.5342 144.698 88.2667 146.073 87.7315C147.449 87.1964 148.602 86.404 149.533 85.3544C150.474 84.3047 151.187 82.9978 151.673 81.4336C152.159 79.8694 152.402 78.0582 152.402 76C152.402 73.9418 152.159 72.1306 151.673 70.5664C151.187 69.0022 150.474 67.6953 149.533 66.6456C148.602 65.596 147.449 64.8036 146.073 64.2685C144.698 63.7333 143.121 63.4658 141.342 63.4658H136.084V88.5342H141.342Z"/>
<path d="M178.683 98.0738H167.235V53.9262H178.683V98.0738Z"/>
<path d="M181.979 76C181.979 73.6743 182.222 71.4926 182.708 69.455C183.204 67.4072 183.907 65.5342 184.817 63.8362C185.727 62.128 186.829 60.6049 188.121 59.2671C189.424 57.9293 190.883 56.7973 192.496 55.8711C194.119 54.9347 195.883 54.2246 197.786 53.7409C199.699 53.247 201.72 53 203.851 53C205.981 53 207.998 53.247 209.9 53.7409C211.803 54.2246 213.567 54.9347 215.19 55.8711C216.814 56.7973 218.272 57.9293 219.565 59.2671C220.868 60.6049 221.974 62.128 222.884 63.8362C223.794 65.5342 224.492 67.4072 224.978 69.455C225.475 71.4926 225.723 73.6743 225.723 76C225.723 78.3257 225.475 80.5125 224.978 82.5604C224.492 84.598 223.794 86.4709 222.884 88.1792C221.974 89.8772 220.868 91.3951 219.565 92.7329C218.272 94.0707 216.814 95.2078 215.19 96.1443C213.567 97.0705 211.798 97.7754 209.885 98.2591C207.982 98.753 205.971 99 203.851 99C201.72 99 199.699 98.753 197.786 98.2591C195.883 97.7754 194.119 97.0705 192.496 96.1443C190.883 95.2078 189.424 94.0707 188.121 92.7329C186.829 91.3951 185.727 89.8772 184.817 88.1792C183.907 86.4709 183.204 84.598 182.708 82.5604C182.222 80.5125 181.979 78.3257 181.979 76ZM193.52 76C193.52 78.2022 193.742 80.1472 194.187 81.8349C194.642 83.5123 195.304 84.917 196.172 86.049C197.051 87.1707 198.132 88.0197 199.414 88.596C200.707 89.1723 202.186 89.4604 203.851 89.4604C205.516 89.4604 206.989 89.1723 208.272 88.596C209.554 88.0197 210.635 87.1707 211.514 86.049C212.393 84.917 213.055 83.5123 213.499 81.8349C213.954 80.1472 214.182 78.2022 214.182 76C214.182 73.7875 213.954 71.8425 213.499 70.1651C213.055 68.4877 212.393 67.083 211.514 65.951C210.635 64.819 209.554 63.97 208.272 63.404C206.989 62.8277 205.516 62.5396 203.851 62.5396C202.186 62.5396 200.707 62.8277 199.414 63.404C198.132 63.97 197.051 64.819 196.172 65.951C195.304 67.083 194.642 68.4877 194.187 70.1651C193.742 71.8425 193.52 73.7875 193.52 76Z"/>
<path d="M247.678 53C250.626 53 253.273 53.3499 255.621 54.0497C257.968 54.7391 259.959 55.7374 261.593 57.0443C263.237 58.3409 264.493 59.9257 265.362 61.7987C266.231 63.6716 266.665 65.7915 266.665 68.1584H255.745C255.745 67.2013 255.548 66.3421 255.155 65.5805C254.773 64.819 254.219 64.1758 253.495 63.651C252.782 63.1159 251.918 62.7042 250.905 62.4161C249.891 62.128 248.759 61.9839 247.508 61.9839C246.474 61.9839 245.486 62.0868 244.545 62.2926C243.614 62.4881 242.792 62.7814 242.078 63.1725C241.365 63.5635 240.796 64.0523 240.372 64.6389C239.958 65.2152 239.752 65.8841 239.752 66.6456C239.752 67.4174 239.938 68.04 240.31 68.5134C240.693 68.9868 241.267 69.3779 242.032 69.6866C242.797 69.985 243.759 70.2371 244.917 70.443C246.075 70.6488 247.435 70.8649 248.997 71.0913L250.564 71.3074C251.484 71.4412 252.441 71.5904 253.433 71.755C254.426 71.9094 255.419 72.0998 256.412 72.3262C257.404 72.5526 258.382 72.8304 259.344 73.1597C260.305 73.4787 261.22 73.8698 262.089 74.3329C262.958 74.7857 263.759 75.326 264.494 75.9537C265.228 76.5814 265.859 77.3121 266.386 78.1456C266.924 78.9689 267.343 79.9157 267.642 80.9859C267.942 82.0459 268.092 83.2447 268.092 84.5826C268.092 86.9083 267.627 88.9716 266.696 90.7725C265.766 92.5631 264.431 94.0707 262.694 95.2953C260.957 96.5096 258.847 97.4306 256.365 98.0584C253.894 98.6861 251.112 99 248.02 99C244.721 99 241.804 98.645 239.271 97.9349C236.737 97.2248 234.612 96.206 232.895 94.8785C231.179 93.5407 229.881 91.9096 229.002 89.9852C228.123 88.0608 227.683 85.8792 227.683 83.4403H238.604C238.604 84.4694 238.816 85.3955 239.24 86.2188C239.674 87.0318 240.295 87.7213 241.101 88.2873C241.908 88.843 242.885 89.27 244.033 89.5685C245.191 89.8669 246.499 90.0161 247.958 90.0161C249.199 90.0161 250.352 89.9081 251.417 89.6919C252.492 89.4758 253.418 89.1568 254.193 88.7349C254.979 88.3027 255.595 87.7727 256.039 87.145C256.494 86.5069 256.722 85.7711 256.722 84.9376C256.722 84.104 256.525 83.4351 256.132 82.9309C255.75 82.4266 255.176 82.015 254.411 81.696C253.656 81.377 252.709 81.1248 251.572 80.9396C250.434 80.7441 249.121 80.5485 247.632 80.353L245.553 80.0597C244.364 79.8951 243.113 79.7098 241.799 79.504C240.486 79.2982 239.193 79.0152 237.921 78.655C236.649 78.2949 235.434 77.8318 234.276 77.2658C233.128 76.6895 232.115 75.964 231.235 75.0893C230.356 74.2042 229.658 73.1391 229.141 71.894C228.624 70.6385 228.366 69.1463 228.366 67.4174C228.366 65.8532 228.583 64.4125 229.017 63.0953C229.462 61.7781 230.088 60.5895 230.894 59.5295C231.711 58.4593 232.699 57.5177 233.857 56.7047C235.015 55.8917 236.308 55.2125 237.735 54.6671C239.162 54.1114 240.713 53.6946 242.389 53.4168C244.064 53.1389 245.827 53 247.678 53Z"/>
</mask>
<path d="M20.9951 53C23.9424 53 26.5899 53.3499 28.9374 54.0497C31.2849 54.7391 33.2756 55.7374 34.9095 57.0443C36.5538 58.3409 37.8103 59.9257 38.679 61.7987C39.5476 63.6716 39.982 65.7915 39.982 68.1584H29.0614C29.0614 67.2013 28.865 66.3421 28.472 65.5805C28.0894 64.819 27.5361 64.1758 26.8122 63.651C26.0986 63.1159 25.2351 62.7042 24.2217 62.4161C23.2082 62.128 22.0758 61.9839 20.8245 61.9839C19.7904 61.9839 18.8028 62.0868 17.8617 62.2926C16.931 62.4881 16.1088 62.7814 15.3952 63.1725C14.6817 63.5635 14.1129 64.0523 13.6889 64.6389C13.2753 65.2152 13.0684 65.8841 13.0684 66.6456C13.0684 67.4174 13.2546 68.04 13.6269 68.5134C14.0095 68.9868 14.5835 69.3779 15.3487 69.6866C16.114 69.985 17.0757 70.2371 18.234 70.443C19.3922 70.6488 20.7521 70.8649 22.3137 71.0913L23.8804 71.3074C24.8008 71.4412 25.7574 71.5904 26.7501 71.755C27.7429 71.9094 28.7357 72.0998 29.7285 72.3262C30.7213 72.5526 31.6985 72.8304 32.6603 73.1597C33.622 73.4787 34.5373 73.8698 35.4059 74.3329C36.2746 74.7857 37.076 75.326 37.8103 75.9537C38.5445 76.5814 39.1754 77.3121 39.7028 78.1456C40.2405 78.9689 40.6593 79.9157 40.9592 80.9859C41.2591 82.0459 41.4091 83.2447 41.4091 84.5826C41.4091 86.9083 40.9437 88.9716 40.013 90.7725C39.0823 92.5631 37.7483 94.0707 36.0109 95.2953C34.2736 96.5096 32.1639 97.4306 29.6819 98.0584C27.2103 98.6861 24.4285 99 21.3364 99C18.0375 99 15.1212 98.645 12.5876 97.9349C10.0539 97.2248 7.92874 96.206 6.21207 94.8785C4.49539 93.5407 3.19756 91.9096 2.31854 89.9852C1.43952 88.0608 1 85.8792 1 83.4403H11.9205C11.9205 84.4694 12.1325 85.3955 12.5565 86.2188C12.9909 87.0318 13.6114 87.7213 14.418 88.2873C15.2246 88.843 16.2019 89.27 17.3498 89.5685C18.508 89.8669 19.8162 90.0161 21.2744 90.0161C22.5153 90.0161 23.6684 89.9081 24.7336 89.6919C25.8091 89.4758 26.7346 89.1568 27.5102 88.7349C28.2962 88.3027 28.9115 87.7727 29.3562 87.145C29.8112 86.5069 30.0387 85.7711 30.0387 84.9376C30.0387 84.104 29.8422 83.4351 29.4492 82.9309C29.0666 82.4266 28.4927 82.015 27.7274 81.696C26.9725 81.377 26.0262 81.1248 24.8887 80.9396C23.7511 80.7441 22.4378 80.5485 20.9486 80.353L18.87 80.0597C17.6807 79.8951 16.4294 79.7098 15.116 79.504C13.8027 79.2982 12.51 79.0152 11.238 78.655C9.96603 78.2949 8.75091 77.8318 7.59267 77.2658C6.44477 76.6895 5.43128 75.964 4.55226 75.0893C3.67324 74.2042 2.9752 73.1391 2.45813 71.894C1.94106 70.6385 1.68253 69.1463 1.68253 67.4174C1.68253 65.8532 1.89969 64.4125 2.33403 63.0953C2.77871 61.7781 3.40438 60.5895 4.21101 59.5295C5.02799 58.4593 6.01559 57.5177 7.17383 56.7047C8.33207 55.8917 9.62475 55.2125 11.0519 54.6671C12.479 54.1114 14.0302 53.6946 15.7055 53.4168C17.3808 53.1389 19.144 53 20.9951 53Z" fill="#232323"/>
<path d="M79.6785 63.3732H66.5553V98.0738H55.1073V63.3732H41.984V53.9262H79.6785V63.3732Z" fill="#232323"/>
<path d="M82.0393 53.9262H93.4872V79.4577C93.4872 81.2072 93.6631 82.7148 94.0147 83.9805C94.3663 85.236 94.8833 86.2702 95.5659 87.0832C96.2588 87.8962 97.1119 88.4982 98.1254 88.8893C99.1388 89.27 100.302 89.4604 101.616 89.4604C102.939 89.4604 104.108 89.27 105.121 88.8893C106.135 88.4982 106.983 87.8962 107.665 87.0832C108.348 86.2702 108.865 85.236 109.217 83.9805C109.568 82.7148 109.744 81.2072 109.744 79.4577V53.9262H121.192V80.4765C121.192 83.4506 120.711 86.0902 119.749 88.3953C118.788 90.6902 117.438 92.6248 115.701 94.1993C113.974 95.7738 111.91 96.9676 109.511 97.7805C107.122 98.5935 104.491 99 101.616 99C99.7024 99 97.8927 98.8148 96.1864 98.4443C94.48 98.0841 92.8978 97.549 91.4396 96.8389C89.9918 96.1289 88.6888 95.249 87.5306 94.1993C86.3724 93.1497 85.3847 91.9405 84.5678 90.5718C83.7508 89.1928 83.1251 87.6647 82.6908 85.9873C82.2564 84.2996 82.0393 82.4626 82.0393 80.4765V53.9262Z" fill="#232323"/>
<path d="M124.698 53.9262H141.668C143.871 53.9262 145.949 54.1629 147.904 54.6362C149.858 55.0993 151.663 55.7734 153.318 56.6584C154.972 57.5434 156.451 58.6291 157.754 59.9154C159.067 61.2018 160.184 62.6631 161.105 64.2993C162.025 65.9356 162.728 67.7365 163.214 69.702C163.7 71.6573 163.943 73.7566 163.943 76C163.943 78.2434 163.7 80.3479 163.214 82.3134C162.728 84.2687 162.025 86.0644 161.105 87.7007C160.184 89.3369 159.067 90.7982 157.754 92.0846C156.451 93.3709 154.972 94.4566 153.318 95.3416C151.663 96.2266 149.858 96.9058 147.904 97.3792C145.949 97.8423 143.871 98.0738 141.668 98.0738H124.698V53.9262ZM141.342 88.5342C143.121 88.5342 144.698 88.2667 146.073 87.7315C147.449 87.1964 148.602 86.404 149.533 85.3544C150.474 84.3047 151.187 82.9978 151.673 81.4336C152.159 79.8694 152.402 78.0582 152.402 76C152.402 73.9418 152.159 72.1306 151.673 70.5664C151.187 69.0022 150.474 67.6953 149.533 66.6456C148.602 65.596 147.449 64.8036 146.073 64.2685C144.698 63.7333 143.121 63.4658 141.342 63.4658H136.084V88.5342H141.342Z" fill="#232323"/>
<path d="M178.683 98.0738H167.235V53.9262H178.683V98.0738Z" fill="#232323"/>
<path d="M181.979 76C181.979 73.6743 182.222 71.4926 182.708 69.455C183.204 67.4072 183.907 65.5342 184.817 63.8362C185.727 62.128 186.829 60.6049 188.121 59.2671C189.424 57.9293 190.883 56.7973 192.496 55.8711C194.119 54.9347 195.883 54.2246 197.786 53.7409C199.699 53.247 201.72 53 203.851 53C205.981 53 207.998 53.247 209.9 53.7409C211.803 54.2246 213.567 54.9347 215.19 55.8711C216.814 56.7973 218.272 57.9293 219.565 59.2671C220.868 60.6049 221.974 62.128 222.884 63.8362C223.794 65.5342 224.492 67.4072 224.978 69.455C225.475 71.4926 225.723 73.6743 225.723 76C225.723 78.3257 225.475 80.5125 224.978 82.5604C224.492 84.598 223.794 86.4709 222.884 88.1792C221.974 89.8772 220.868 91.3951 219.565 92.7329C218.272 94.0707 216.814 95.2078 215.19 96.1443C213.567 97.0705 211.798 97.7754 209.885 98.2591C207.982 98.753 205.971 99 203.851 99C201.72 99 199.699 98.753 197.786 98.2591C195.883 97.7754 194.119 97.0705 192.496 96.1443C190.883 95.2078 189.424 94.0707 188.121 92.7329C186.829 91.3951 185.727 89.8772 184.817 88.1792C183.907 86.4709 183.204 84.598 182.708 82.5604C182.222 80.5125 181.979 78.3257 181.979 76ZM193.52 76C193.52 78.2022 193.742 80.1472 194.187 81.8349C194.642 83.5123 195.304 84.917 196.172 86.049C197.051 87.1707 198.132 88.0197 199.414 88.596C200.707 89.1723 202.186 89.4604 203.851 89.4604C205.516 89.4604 206.989 89.1723 208.272 88.596C209.554 88.0197 210.635 87.1707 211.514 86.049C212.393 84.917 213.055 83.5123 213.499 81.8349C213.954 80.1472 214.182 78.2022 214.182 76C214.182 73.7875 213.954 71.8425 213.499 70.1651C213.055 68.4877 212.393 67.083 211.514 65.951C210.635 64.819 209.554 63.97 208.272 63.404C206.989 62.8277 205.516 62.5396 203.851 62.5396C202.186 62.5396 200.707 62.8277 199.414 63.404C198.132 63.97 197.051 64.819 196.172 65.951C195.304 67.083 194.642 68.4877 194.187 70.1651C193.742 71.8425 193.52 73.7875 193.52 76Z" fill="#232323"/>
<path d="M247.678 53C250.626 53 253.273 53.3499 255.621 54.0497C257.968 54.7391 259.959 55.7374 261.593 57.0443C263.237 58.3409 264.493 59.9257 265.362 61.7987C266.231 63.6716 266.665 65.7915 266.665 68.1584H255.745C255.745 67.2013 255.548 66.3421 255.155 65.5805C254.773 64.819 254.219 64.1758 253.495 63.651C252.782 63.1159 251.918 62.7042 250.905 62.4161C249.891 62.128 248.759 61.9839 247.508 61.9839C246.474 61.9839 245.486 62.0868 244.545 62.2926C243.614 62.4881 242.792 62.7814 242.078 63.1725C241.365 63.5635 240.796 64.0523 240.372 64.6389C239.958 65.2152 239.752 65.8841 239.752 66.6456C239.752 67.4174 239.938 68.04 240.31 68.5134C240.693 68.9868 241.267 69.3779 242.032 69.6866C242.797 69.985 243.759 70.2371 244.917 70.443C246.075 70.6488 247.435 70.8649 248.997 71.0913L250.564 71.3074C251.484 71.4412 252.441 71.5904 253.433 71.755C254.426 71.9094 255.419 72.0998 256.412 72.3262C257.404 72.5526 258.382 72.8304 259.344 73.1597C260.305 73.4787 261.22 73.8698 262.089 74.3329C262.958 74.7857 263.759 75.326 264.494 75.9537C265.228 76.5814 265.859 77.3121 266.386 78.1456C266.924 78.9689 267.343 79.9157 267.642 80.9859C267.942 82.0459 268.092 83.2447 268.092 84.5826C268.092 86.9083 267.627 88.9716 266.696 90.7725C265.766 92.5631 264.431 94.0707 262.694 95.2953C260.957 96.5096 258.847 97.4306 256.365 98.0584C253.894 98.6861 251.112 99 248.02 99C244.721 99 241.804 98.645 239.271 97.9349C236.737 97.2248 234.612 96.206 232.895 94.8785C231.179 93.5407 229.881 91.9096 229.002 89.9852C228.123 88.0608 227.683 85.8792 227.683 83.4403H238.604C238.604 84.4694 238.816 85.3955 239.24 86.2188C239.674 87.0318 240.295 87.7213 241.101 88.2873C241.908 88.843 242.885 89.27 244.033 89.5685C245.191 89.8669 246.499 90.0161 247.958 90.0161C249.199 90.0161 250.352 89.9081 251.417 89.6919C252.492 89.4758 253.418 89.1568 254.193 88.7349C254.979 88.3027 255.595 87.7727 256.039 87.145C256.494 86.5069 256.722 85.7711 256.722 84.9376C256.722 84.104 256.525 83.4351 256.132 82.9309C255.75 82.4266 255.176 82.015 254.411 81.696C253.656 81.377 252.709 81.1248 251.572 80.9396C250.434 80.7441 249.121 80.5485 247.632 80.353L245.553 80.0597C244.364 79.8951 243.113 79.7098 241.799 79.504C240.486 79.2982 239.193 79.0152 237.921 78.655C236.649 78.2949 235.434 77.8318 234.276 77.2658C233.128 76.6895 232.115 75.964 231.235 75.0893C230.356 74.2042 229.658 73.1391 229.141 71.894C228.624 70.6385 228.366 69.1463 228.366 67.4174C228.366 65.8532 228.583 64.4125 229.017 63.0953C229.462 61.7781 230.088 60.5895 230.894 59.5295C231.711 58.4593 232.699 57.5177 233.857 56.7047C235.015 55.8917 236.308 55.2125 237.735 54.6671C239.162 54.1114 240.713 53.6946 242.389 53.4168C244.064 53.1389 245.827 53 247.678 53Z" fill="#232323"/>
<path d="M20.9951 53C23.9424 53 26.5899 53.3499 28.9374 54.0497C31.2849 54.7391 33.2756 55.7374 34.9095 57.0443C36.5538 58.3409 37.8103 59.9257 38.679 61.7987C39.5476 63.6716 39.982 65.7915 39.982 68.1584H29.0614C29.0614 67.2013 28.865 66.3421 28.472 65.5805C28.0894 64.819 27.5361 64.1758 26.8122 63.651C26.0986 63.1159 25.2351 62.7042 24.2217 62.4161C23.2082 62.128 22.0758 61.9839 20.8245 61.9839C19.7904 61.9839 18.8028 62.0868 17.8617 62.2926C16.931 62.4881 16.1088 62.7814 15.3952 63.1725C14.6817 63.5635 14.1129 64.0523 13.6889 64.6389C13.2753 65.2152 13.0684 65.8841 13.0684 66.6456C13.0684 67.4174 13.2546 68.04 13.6269 68.5134C14.0095 68.9868 14.5835 69.3779 15.3487 69.6866C16.114 69.985 17.0757 70.2371 18.234 70.443C19.3922 70.6488 20.7521 70.8649 22.3137 71.0913L23.8804 71.3074C24.8008 71.4412 25.7574 71.5904 26.7501 71.755C27.7429 71.9094 28.7357 72.0998 29.7285 72.3262C30.7213 72.5526 31.6985 72.8304 32.6603 73.1597C33.622 73.4787 34.5373 73.8698 35.4059 74.3329C36.2746 74.7857 37.076 75.326 37.8103 75.9537C38.5445 76.5814 39.1754 77.3121 39.7028 78.1456C40.2405 78.9689 40.6593 79.9157 40.9592 80.9859C41.2591 82.0459 41.4091 83.2447 41.4091 84.5826C41.4091 86.9083 40.9437 88.9716 40.013 90.7725C39.0823 92.5631 37.7483 94.0707 36.0109 95.2953C34.2736 96.5096 32.1639 97.4306 29.6819 98.0584C27.2103 98.6861 24.4285 99 21.3364 99C18.0375 99 15.1212 98.645 12.5876 97.9349C10.0539 97.2248 7.92874 96.206 6.21207 94.8785C4.49539 93.5407 3.19756 91.9096 2.31854 89.9852C1.43952 88.0608 1 85.8792 1 83.4403H11.9205C11.9205 84.4694 12.1325 85.3955 12.5565 86.2188C12.9909 87.0318 13.6114 87.7213 14.418 88.2873C15.2246 88.843 16.2019 89.27 17.3498 89.5685C18.508 89.8669 19.8162 90.0161 21.2744 90.0161C22.5153 90.0161 23.6684 89.9081 24.7336 89.6919C25.8091 89.4758 26.7346 89.1568 27.5102 88.7349C28.2962 88.3027 28.9115 87.7727 29.3562 87.145C29.8112 86.5069 30.0387 85.7711 30.0387 84.9376C30.0387 84.104 29.8422 83.4351 29.4492 82.9309C29.0666 82.4266 28.4927 82.015 27.7274 81.696C26.9725 81.377 26.0262 81.1248 24.8887 80.9396C23.7511 80.7441 22.4378 80.5485 20.9486 80.353L18.87 80.0597C17.6807 79.8951 16.4294 79.7098 15.116 79.504C13.8027 79.2982 12.51 79.0152 11.238 78.655C9.96603 78.2949 8.75091 77.8318 7.59267 77.2658C6.44477 76.6895 5.43128 75.964 4.55226 75.0893C3.67324 74.2042 2.9752 73.1391 2.45813 71.894C1.94106 70.6385 1.68253 69.1463 1.68253 67.4174C1.68253 65.8532 1.89969 64.4125 2.33403 63.0953C2.77871 61.7781 3.40438 60.5895 4.21101 59.5295C5.02799 58.4593 6.01559 57.5177 7.17383 56.7047C8.33207 55.8917 9.62475 55.2125 11.0519 54.6671C12.479 54.1114 14.0302 53.6946 15.7055 53.4168C17.3808 53.1389 19.144 53 20.9951 53Z" stroke="#232323" stroke-width="2" mask="url(#path-2-outside-2_212_6)"/>
<path d="M79.6785 63.3732H66.5553V98.0738H55.1073V63.3732H41.984V53.9262H79.6785V63.3732Z" stroke="#232323" stroke-width="2" mask="url(#path-2-outside-2_212_6)"/>
<path d="M82.0393 53.9262H93.4872V79.4577C93.4872 81.2072 93.6631 82.7148 94.0147 83.9805C94.3663 85.236 94.8833 86.2702 95.5659 87.0832C96.2588 87.8962 97.1119 88.4982 98.1254 88.8893C99.1388 89.27 100.302 89.4604 101.616 89.4604C102.939 89.4604 104.108 89.27 105.121 88.8893C106.135 88.4982 106.983 87.8962 107.665 87.0832C108.348 86.2702 108.865 85.236 109.217 83.9805C109.568 82.7148 109.744 81.2072 109.744 79.4577V53.9262H121.192V80.4765C121.192 83.4506 120.711 86.0902 119.749 88.3953C118.788 90.6902 117.438 92.6248 115.701 94.1993C113.974 95.7738 111.91 96.9676 109.511 97.7805C107.122 98.5935 104.491 99 101.616 99C99.7024 99 97.8927 98.8148 96.1864 98.4443C94.48 98.0841 92.8978 97.549 91.4396 96.8389C89.9918 96.1289 88.6888 95.249 87.5306 94.1993C86.3724 93.1497 85.3847 91.9405 84.5678 90.5718C83.7508 89.1928 83.1251 87.6647 82.6908 85.9873C82.2564 84.2996 82.0393 82.4626 82.0393 80.4765V53.9262Z" stroke="#232323" stroke-width="2" mask="url(#path-2-outside-2_212_6)"/>
<path d="M124.698 53.9262H141.668C143.871 53.9262 145.949 54.1629 147.904 54.6362C149.858 55.0993 151.663 55.7734 153.318 56.6584C154.972 57.5434 156.451 58.6291 157.754 59.9154C159.067 61.2018 160.184 62.6631 161.105 64.2993C162.025 65.9356 162.728 67.7365 163.214 69.702C163.7 71.6573 163.943 73.7566 163.943 76C163.943 78.2434 163.7 80.3479 163.214 82.3134C162.728 84.2687 162.025 86.0644 161.105 87.7007C160.184 89.3369 159.067 90.7982 157.754 92.0846C156.451 93.3709 154.972 94.4566 153.318 95.3416C151.663 96.2266 149.858 96.9058 147.904 97.3792C145.949 97.8423 143.871 98.0738 141.668 98.0738H124.698V53.9262ZM141.342 88.5342C143.121 88.5342 144.698 88.2667 146.073 87.7315C147.449 87.1964 148.602 86.404 149.533 85.3544C150.474 84.3047 151.187 82.9978 151.673 81.4336C152.159 79.8694 152.402 78.0582 152.402 76C152.402 73.9418 152.159 72.1306 151.673 70.5664C151.187 69.0022 150.474 67.6953 149.533 66.6456C148.602 65.596 147.449 64.8036 146.073 64.2685C144.698 63.7333 143.121 63.4658 141.342 63.4658H136.084V88.5342H141.342Z" stroke="#232323" stroke-width="2" mask="url(#path-2-outside-2_212_6)"/>
<path d="M178.683 98.0738H167.235V53.9262H178.683V98.0738Z" stroke="#232323" stroke-width="2" mask="url(#path-2-outside-2_212_6)"/>
<path d="M181.979 76C181.979 73.6743 182.222 71.4926 182.708 69.455C183.204 67.4072 183.907 65.5342 184.817 63.8362C185.727 62.128 186.829 60.6049 188.121 59.2671C189.424 57.9293 190.883 56.7973 192.496 55.8711C194.119 54.9347 195.883 54.2246 197.786 53.7409C199.699 53.247 201.72 53 203.851 53C205.981 53 207.998 53.247 209.9 53.7409C211.803 54.2246 213.567 54.9347 215.19 55.8711C216.814 56.7973 218.272 57.9293 219.565 59.2671C220.868 60.6049 221.974 62.128 222.884 63.8362C223.794 65.5342 224.492 67.4072 224.978 69.455C225.475 71.4926 225.723 73.6743 225.723 76C225.723 78.3257 225.475 80.5125 224.978 82.5604C224.492 84.598 223.794 86.4709 222.884 88.1792C221.974 89.8772 220.868 91.3951 219.565 92.7329C218.272 94.0707 216.814 95.2078 215.19 96.1443C213.567 97.0705 211.798 97.7754 209.885 98.2591C207.982 98.753 205.971 99 203.851 99C201.72 99 199.699 98.753 197.786 98.2591C195.883 97.7754 194.119 97.0705 192.496 96.1443C190.883 95.2078 189.424 94.0707 188.121 92.7329C186.829 91.3951 185.727 89.8772 184.817 88.1792C183.907 86.4709 183.204 84.598 182.708 82.5604C182.222 80.5125 181.979 78.3257 181.979 76ZM193.52 76C193.52 78.2022 193.742 80.1472 194.187 81.8349C194.642 83.5123 195.304 84.917 196.172 86.049C197.051 87.1707 198.132 88.0197 199.414 88.596C200.707 89.1723 202.186 89.4604 203.851 89.4604C205.516 89.4604 206.989 89.1723 208.272 88.596C209.554 88.0197 210.635 87.1707 211.514 86.049C212.393 84.917 213.055 83.5123 213.499 81.8349C213.954 80.1472 214.182 78.2022 214.182 76C214.182 73.7875 213.954 71.8425 213.499 70.1651C213.055 68.4877 212.393 67.083 211.514 65.951C210.635 64.819 209.554 63.97 208.272 63.404C206.989 62.8277 205.516 62.5396 203.851 62.5396C202.186 62.5396 200.707 62.8277 199.414 63.404C198.132 63.97 197.051 64.819 196.172 65.951C195.304 67.083 194.642 68.4877 194.187 70.1651C193.742 71.8425 193.52 73.7875 193.52 76Z" stroke="#232323" stroke-width="2" mask="url(#path-2-outside-2_212_6)"/>
<path d="M247.678 53C250.626 53 253.273 53.3499 255.621 54.0497C257.968 54.7391 259.959 55.7374 261.593 57.0443C263.237 58.3409 264.493 59.9257 265.362 61.7987C266.231 63.6716 266.665 65.7915 266.665 68.1584H255.745C255.745 67.2013 255.548 66.3421 255.155 65.5805C254.773 64.819 254.219 64.1758 253.495 63.651C252.782 63.1159 251.918 62.7042 250.905 62.4161C249.891 62.128 248.759 61.9839 247.508 61.9839C246.474 61.9839 245.486 62.0868 244.545 62.2926C243.614 62.4881 242.792 62.7814 242.078 63.1725C241.365 63.5635 240.796 64.0523 240.372 64.6389C239.958 65.2152 239.752 65.8841 239.752 66.6456C239.752 67.4174 239.938 68.04 240.31 68.5134C240.693 68.9868 241.267 69.3779 242.032 69.6866C242.797 69.985 243.759 70.2371 244.917 70.443C246.075 70.6488 247.435 70.8649 248.997 71.0913L250.564 71.3074C251.484 71.4412 252.441 71.5904 253.433 71.755C254.426 71.9094 255.419 72.0998 256.412 72.3262C257.404 72.5526 258.382 72.8304 259.344 73.1597C260.305 73.4787 261.22 73.8698 262.089 74.3329C262.958 74.7857 263.759 75.326 264.494 75.9537C265.228 76.5814 265.859 77.3121 266.386 78.1456C266.924 78.9689 267.343 79.9157 267.642 80.9859C267.942 82.0459 268.092 83.2447 268.092 84.5826C268.092 86.9083 267.627 88.9716 266.696 90.7725C265.766 92.5631 264.431 94.0707 262.694 95.2953C260.957 96.5096 258.847 97.4306 256.365 98.0584C253.894 98.6861 251.112 99 248.02 99C244.721 99 241.804 98.645 239.271 97.9349C236.737 97.2248 234.612 96.206 232.895 94.8785C231.179 93.5407 229.881 91.9096 229.002 89.9852C228.123 88.0608 227.683 85.8792 227.683 83.4403H238.604C238.604 84.4694 238.816 85.3955 239.24 86.2188C239.674 87.0318 240.295 87.7213 241.101 88.2873C241.908 88.843 242.885 89.27 244.033 89.5685C245.191 89.8669 246.499 90.0161 247.958 90.0161C249.199 90.0161 250.352 89.9081 251.417 89.6919C252.492 89.4758 253.418 89.1568 254.193 88.7349C254.979 88.3027 255.595 87.7727 256.039 87.145C256.494 86.5069 256.722 85.7711 256.722 84.9376C256.722 84.104 256.525 83.4351 256.132 82.9309C255.75 82.4266 255.176 82.015 254.411 81.696C253.656 81.377 252.709 81.1248 251.572 80.9396C250.434 80.7441 249.121 80.5485 247.632 80.353L245.553 80.0597C244.364 79.8951 243.113 79.7098 241.799 79.504C240.486 79.2982 239.193 79.0152 237.921 78.655C236.649 78.2949 235.434 77.8318 234.276 77.2658C233.128 76.6895 232.115 75.964 231.235 75.0893C230.356 74.2042 229.658 73.1391 229.141 71.894C228.624 70.6385 228.366 69.1463 228.366 67.4174C228.366 65.8532 228.583 64.4125 229.017 63.0953C229.462 61.7781 230.088 60.5895 230.894 59.5295C231.711 58.4593 232.699 57.5177 233.857 56.7047C235.015 55.8917 236.308 55.2125 237.735 54.6671C239.162 54.1114 240.713 53.6946 242.389 53.4168C244.064 53.1389 245.827 53 247.678 53Z" stroke="#232323" stroke-width="2" mask="url(#path-2-outside-2_212_6)"/>
</svg>
